<?xml version="1.0" encoding="UTF-8"?><svg xmlns="http://www.w3.org/2000/svg" xmlns:xlink="http://www.w3.org/1999/xlink" height="413.6" preserveAspectRatio="xMidYMid meet" version="1.0" viewBox="-2.9 0.0 485.4 413.6" width="485.4" zoomAndPan="magnify"><defs><clipPath id="a"><path d="M 346 65 L 482.550781 65 L 482.550781 413.570312 L 346 413.570312 Z M 346 65"/></clipPath></defs><g><g id="change1_1"><path d="M 175.730469 313.40625 L 175.289062 313.765625 L 176.328125 238.40625 L 178.28125 235.921875 L 183.050781 292.003906 L 183.464844 292.195312 Z M 214.535156 211.410156 L 200.628906 198.40625 L 147.492188 199.003906 L 139.390625 210.898438 L 134.726562 214.90625 L 144.226562 272.40625 L 150.726562 355.804688 C 150.726562 355.804688 158.753906 364.300781 172.988281 357.984375 L 174.628906 358.304688 L 174.929688 339.910156 C 179.828125 347.632812 192.15625 338.476562 192.15625 338.476562 L 205.15625 300.796875 L 205.433594 300.003906 L 214.535156 211.410156" fill="#fff"/></g><g id="change2_2"><path d="M 141.628906 194.605469 L 204.328125 194.605469 L 204.328125 199.703125 L 141.628906 199.703125 L 141.628906 194.605469" fill="#100f0d"/></g><g id="change3_1"><path d="M 182.828125 96.703125 L 194.328125 102.804688 C 194.328125 102.804688 231.429688 105.503906 235.328125 155.40625 C 239.226562 205.304688 212.027344 212.40625 212.027344 212.40625 C 204.527344 212.90625 200.027344 194.503906 200.027344 194.503906 L 147.128906 195.203125 C 147.429688 206.703125 133.929688 213.804688 133.929688 213.804688 C 118.128906 211.203125 112.226562 174.503906 118.628906 141.804688 C 125.027344 109.105469 154.328125 103.605469 154.328125 103.605469 L 162.429688 98.503906 L 182.828125 96.703125" fill="#59c1b4"/></g><g id="change2_3"><path d="M 213.328125 144.804688 C 210.726562 149.40625 208.828125 153.703125 207.429688 157.804688 C 203.527344 136.703125 214.828125 113.804688 214.929688 113.605469 L 214.027344 113.105469 C 213.929688 113.40625 201.726562 137.804688 206.726562 159.703125 C 202.226562 174.203125 204.226562 184.503906 204.628906 186.203125 C 200.226562 193.003906 199.328125 196.804688 199.628906 199.003906 C 199.929688 198.703125 200.226562 198.503906 200.628906 198.40625 C 200.628906 196.503906 201.527344 193.003906 205.628906 186.703125 L 205.726562 186.503906 L 205.726562 186.304688 C 205.726562 186.105469 201.128906 168.605469 214.226562 145.503906 Z M 193.726562 106.40625 L 192.726562 106.703125 C 193.527344 109.703125 191.429688 127.003906 190.226562 127.90625 C 189.128906 128.003906 181.429688 123.203125 174.527344 118.40625 L 174.226562 118.203125 L 173.929688 118.40625 C 170.328125 120.703125 160.429688 126.703125 157.929688 126.40625 C 156.226562 126.203125 155.328125 116.203125 155.429688 107.105469 L 154.429688 107.105469 C 154.328125 111.703125 154.429688 127.003906 157.828125 127.40625 C 159.726562 127.605469 164.726562 125.105469 168.726562 122.804688 L 171.527344 129.503906 C 171.527344 129.503906 163.226562 178.003906 165.128906 181.90625 C 167.027344 185.703125 172.828125 192.40625 174.128906 192.003906 C 175.429688 191.605469 182.128906 185.105469 182.527344 182.304688 C 182.929688 179.503906 177.027344 128.605469 177.027344 128.605469 L 179.226562 123.003906 C 183.628906 125.90625 188.726562 129.003906 190.226562 129.003906 C 190.328125 129.003906 190.429688 129.003906 190.429688 129.003906 C 192.828125 128.105469 194.226562 108.503906 193.726562 106.40625 Z M 143.726562 177.003906 L 145.828125 150.703125 C 148.429688 133.804688 135.328125 116.804688 135.128906 116.605469 L 134.328125 117.203125 C 134.429688 117.40625 147.328125 134.105469 144.828125 150.503906 L 142.828125 174.503906 C 137.226562 158.804688 130.128906 158.90625 129.726562 158.90625 L 129.726562 159.90625 C 129.929688 159.90625 142.628906 160.003906 147.128906 200.40625 L 147.828125 197.703125 C 146.828125 187.90625 145.527344 182.804688 143.726562 177.003906 Z M 163.027344 193.105469 L 162.628906 194.003906 L 169.226562 197.003906 L 171.628906 197.003906 Z M 201.628906 153.105469 C 201.628906 154.804688 200.226562 156.105469 198.628906 156.105469 L 191.027344 156.105469 C 189.328125 156.105469 188.027344 154.804688 188.027344 153.105469 L 188.027344 139.203125 C 188.027344 137.503906 189.328125 136.203125 191.027344 136.203125 L 198.628906 136.203125 C 200.226562 136.203125 201.628906 137.503906 201.628906 139.203125 Z M 198.628906 135.203125 L 191.027344 135.203125 C 188.828125 135.203125 187.027344 137.003906 187.027344 139.203125 L 187.027344 153.105469 C 187.027344 155.304688 188.828125 157.105469 191.027344 157.105469 L 198.628906 157.105469 C 200.828125 157.105469 202.628906 155.304688 202.628906 153.105469 L 202.628906 139.203125 C 202.628906 137.003906 200.828125 135.203125 198.628906 135.203125" fill="#100f0d"/></g><g id="change1_2"><path d="M 177.527344 128.90625 L 172.726562 128.90625 L 172.726562 127.90625 L 176.828125 127.90625 L 179.128906 122.203125 L 180.027344 122.605469 L 177.527344 128.90625" fill="#fff"/></g><g id="change1_3"><path d="M 169.128906 195.203125 L 182.527344 195.203125 L 182.527344 200.003906 L 169.128906 200.003906 L 169.128906 195.203125" fill="#fff"/></g><g id="change2_4"><path d="M 169.628906 199.503906 L 182.027344 199.503906 L 182.027344 195.703125 L 169.628906 195.703125 Z M 183.027344 200.503906 L 168.628906 200.503906 L 168.628906 194.703125 L 183.027344 194.703125 L 183.027344 200.503906" fill="#100f0d"/></g><g id="change3_2"><path d="M 171.128906 359.304688 L 170.726562 370.105469 L 154.128906 369.503906 L 153.429688 358.207031 C 160.429688 362.605469 171.128906 359.304688 171.128906 359.304688" fill="#59c1b4"/></g><g id="change2_5"><path d="M 154.527344 368.90625 L 170.128906 369.503906 L 170.527344 359.90625 C 168.128906 360.503906 160.027344 362.304688 153.929688 359.003906 Z M 171.128906 370.503906 L 153.628906 369.90625 L 152.828125 357.207031 L 153.628906 357.707031 C 160.328125 362.003906 170.726562 358.804688 170.828125 358.707031 L 171.527344 358.503906 L 171.128906 370.503906" fill="#100f0d"/></g><g id="change2_6"><path d="M 187.128906 371.90625 C 180.128906 373.304688 175.929688 372.40625 173.929688 366.90625 C 174.328125 369.003906 174.929688 372.40625 175.828125 377.503906 C 178.929688 394.503906 182.527344 412.503906 161.128906 412.503906 C 142.226562 412.503906 145.929688 387.605469 148.828125 378.304688 C 151.726562 369.105469 149.929688 363.90625 151.628906 363.90625 C 153.328125 363.90625 154.527344 367.90625 154.527344 367.90625 C 160.429688 361.40625 169.929688 367.90625 169.929688 367.90625 C 170.429688 365.003906 172.128906 363.804688 172.929688 363.503906 C 172.726562 362.207031 172.527344 360.804688 172.429688 359.207031 L 174.027344 357.707031 L 174.429688 340.503906 C 174.429688 340.503906 181.027344 346.003906 190.328125 339.90625 C 190.429688 339.90625 196.527344 370.003906 187.128906 371.90625" fill="#100f0d"/></g><g id="change1_4"><path d="M 185.527344 363.207031 C 186.527344 363.105469 187.429688 362.707031 188.128906 361.804688 C 191.828125 357.207031 189.226562 342.304688 189.128906 341.605469 L 188.128906 341.804688 C 188.128906 342.003906 190.726562 357.003906 187.328125 361.207031 C 186.828125 361.804688 186.226562 362.207031 185.429688 362.207031 C 182.527344 362.304688 180.628906 362.40625 179.226562 361.105469 C 177.128906 359.003906 176.226562 353.503906 176.429688 342.105469 L 175.429688 342.105469 C 175.328125 354.003906 176.128906 359.503906 178.527344 361.804688 C 179.828125 363.003906 181.429688 363.304688 183.226562 363.304688 C 184.027344 363.304688 184.726562 363.304688 185.527344 363.207031 Z M 160.027344 401.90625 C 157.929688 401.90625 156.128906 401.40625 154.726562 400.105469 C 151.328125 396.707031 151.128906 388.003906 154.027344 369.804688 L 155.027344 370.003906 C 152.128906 387.605469 152.226562 396.40625 155.429688 399.40625 C 157.429688 401.304688 160.628906 401.207031 165.828125 400.207031 C 167.527344 399.90625 168.828125 398.90625 169.828125 397.40625 C 174.628906 389.804688 169.527344 370.304688 169.527344 370.105469 L 170.527344 369.804688 C 170.726562 370.605469 175.828125 389.90625 170.726562 397.90625 C 169.628906 399.707031 168.027344 400.804688 166.027344 401.207031 C 163.828125 401.605469 161.828125 401.90625 160.027344 401.90625" fill="#fff"/></g><g id="change2_7"><path d="M 191.929688 293.503906 L 189.628906 288.40625 L 190.527344 288.003906 L 192.828125 293.105469 Z M 173.628906 230.304688 L 172.527344 200.105469 L 173.527344 200.105469 L 174.628906 230.304688 Z M 200.527344 199.605469 L 201.527344 199.304688 C 201.527344 199.40625 205.726562 212.605469 211.527344 211.90625 L 211.628906 212.605469 L 211.726562 212.605469 L 210.527344 221.703125 L 209.527344 221.605469 L 210.726562 212.90625 C 204.628906 212.40625 200.726562 200.105469 200.527344 199.605469 Z M 176.328125 238.40625 L 177.726562 236.703125 L 182.527344 292.804688 L 175.328125 313.40625 Z M 213.628906 211.40625 C 213.527344 212.203125 207.328125 291.90625 203.828125 304.003906 C 200.429688 315.707031 191.828125 336.304688 191.128906 337.804688 C 190.628906 338.40625 186.328125 342.503906 181.429688 342.605469 C 179.027344 342.605469 176.929688 341.707031 174.929688 339.90625 L 175.226562 316.605469 L 183.527344 293.003906 L 178.628906 235.703125 L 187.527344 224.804688 L 186.726562 224.203125 L 175.527344 238.003906 L 175.429688 238.105469 L 174.027344 340.207031 L 173.828125 357.605469 C 161.226562 363.605469 152.027344 356.804688 150.726562 355.804688 L 144.226562 272.40625 L 134.726562 214.90625 C 146.929688 207.304688 148.128906 197.605469 148.226562 197.203125 L 147.226562 197.105469 C 147.226562 197.203125 145.929688 206.804688 133.929688 214.203125 L 133.628906 214.40625 L 143.226562 272.605469 L 149.726562 356.304688 L 149.929688 356.40625 C 150.027344 356.503906 155.226562 361.003906 163.527344 361.003906 C 166.828125 361.003906 170.527344 360.304688 174.628906 358.304688 L 174.929688 358.207031 L 175.128906 341.304688 C 177.027344 342.90625 179.226562 343.707031 181.527344 343.707031 L 181.628906 343.707031 C 187.328125 343.605469 191.929688 338.707031 192.128906 338.503906 L 192.226562 338.40625 C 192.328125 338.207031 201.429688 316.503906 204.929688 304.40625 C 208.429688 292.203125 214.527344 214.90625 214.726562 211.605469 L 213.628906 211.40625" fill="#100f0d"/></g><g id="change2_8"><path d="M 76.628906 357.804688 L 82.925781 386.105469 C 80.128906 409.105469 72.027344 409.503906 64.027344 408.605469 C 55.925781 407.707031 52.328125 387.304688 52.328125 387.304688 L 59.027344 358.304688 L 57.027344 350.90625 C 54.226562 341.707031 60.226562 341.207031 72.425781 340.503906 C 84.726562 339.804688 79.726562 350.90625 79.726562 350.90625 L 76.628906 357.804688" fill="#100f0d"/></g><g id="change4_1"><path d="M 63.425781 312.304688 L 61.027344 342.105469 L 53.226562 342.105469 L 46.128906 312.304688 L 63.425781 312.304688" fill="#b56951"/></g><g id="change2_9"><path d="M 73.027344 335.707031 L 63.527344 393.90625 C 63.527344 393.90625 48.027344 379.304688 46.128906 375.707031 C 44.226562 372.105469 51.425781 347.90625 51.425781 347.90625 C 51.425781 347.90625 52.226562 348.605469 48.527344 342.105469 C 44.726562 335.605469 51.425781 334.503906 51.425781 334.503906 L 51.527344 334.503906 C 53.226562 336.707031 55.828125 338.207031 58.828125 338.207031 C 61.425781 338.207031 63.828125 337.105469 65.527344 335.304688 L 73.027344 335.707031" fill="#100f0d"/></g><g id="change1_5"><path d="M 53.628906 383.804688 L 52.628906 383.605469 L 58.128906 359.40625 C 57.328125 357.605469 52.925781 347.707031 54.328125 344.707031 C 55.726562 341.503906 60.828125 341.605469 61.027344 341.605469 L 61.027344 342.605469 C 61.027344 342.605469 56.425781 342.605469 55.226562 345.207031 C 54.226562 347.40625 57.726562 356.105469 59.128906 359.207031 L 59.226562 359.40625 L 53.628906 383.804688" fill="#fff"/></g><g id="change4_2"><path d="M 81.925781 313.605469 L 75.128906 347.707031 C 75.128906 347.707031 64.226562 353.207031 61.425781 346.304688 L 61.527344 317.003906 L 81.925781 313.605469" fill="#b56951"/></g><g id="change4_3"><path d="M 97.128906 166.703125 C 101.726562 169.40625 110.328125 163.703125 110.328125 163.703125 C 113.429688 179.90625 91.628906 200.605469 91.628906 200.605469 L 88.328125 193.105469 L 96.828125 167.105469 L 97.128906 166.703125" fill="#b56951"/></g><g id="change2_10"><path d="M 90.828125 187.003906 L 89.925781 186.703125 L 96.726562 166.605469 L 97.628906 166.90625 L 90.828125 187.003906" fill="#100f0d"/></g><g id="change3_3"><path d="M 84.527344 170.703125 C 84.527344 170.703125 105.226562 194.804688 93.726562 305.105469 C 93.726562 305.105469 70.027344 330.605469 40.328125 311.203125 C 40.328125 311.203125 10.328125 202.90625 34.527344 170.203125 L 84.527344 170.703125" fill="#59c1b4"/></g><g id="change2_11"><path d="M 110.429688 163.605469 L 110.328125 163.804688 C 110.328125 163.90625 106.628906 168.203125 101.328125 168.203125 C 99.925781 168.203125 98.425781 167.90625 96.828125 167.203125 L 96.628906 167.105469 L 91.226562 141.90625 C 87.828125 151.605469 82.226562 159.203125 81.226562 160.503906 L 84.828125 171.503906 L 34.628906 170.304688 L 39.226562 156.90625 L 31.828125 129.503906 L 18.828125 159.105469 L 0.726562 160.003906 L 1.027344 159.304688 C 1.828125 157.105469 21.027344 104.804688 26.128906 99.003906 C 31.328125 93.105469 50.527344 92.003906 51.328125 92.003906 L 51.425781 93.003906 C 51.226562 93.003906 31.828125 94.105469 26.925781 99.703125 C 22.027344 104.90625 4.425781 152.40625 2.027344 158.804688 L 18.027344 158.003906 L 31.925781 126.304688 L 40.128906 156.804688 L 35.828125 169.203125 L 83.226562 170.40625 L 80.027344 160.203125 L 80.226562 160.003906 C 80.425781 159.804688 99.828125 135.003906 90.027344 115.90625 L 90.925781 115.40625 C 95.128906 123.503906 94.128906 132.605469 91.628906 140.503906 L 91.925781 140.40625 L 97.425781 166.203125 C 103.828125 168.90625 108.527344 164.105469 109.429688 163.203125 C 109.226562 159.90625 106.128906 119.003906 103.828125 110.703125 C 101.527344 102.40625 80.726562 97.304688 80.527344 97.304688 L 80.726562 96.304688 C 81.628906 96.503906 102.328125 101.605469 104.726562 110.503906 C 107.128906 119.105469 110.226562 161.605469 110.328125 163.40625 L 110.429688 163.605469" fill="#100f0d"/></g><g id="change2_12"><path d="M 66.925781 232.304688 L 66.027344 231.804688 L 58.726562 244.105469 L 59.628906 244.605469 Z M 59.628906 258.503906 L 58.726562 258.003906 L 71.425781 236.203125 L 72.328125 236.703125 L 59.628906 258.503906" fill="#100f0d"/></g><g id="change2_13"><path d="M 61.425781 346.304688 L 60.425781 346.304688 L 60.527344 318.40625 L 61.527344 318.40625 L 61.425781 346.304688" fill="#100f0d"/></g><g id="change2_14"><path d="M 71.527344 127.703125 L 69.527344 148.804688 C 69.425781 149.804688 68.628906 150.605469 67.628906 150.605469 L 56.226562 150.605469 C 55.226562 150.605469 54.425781 149.90625 54.328125 148.90625 L 52.226562 127.804688 C 52.128906 127.304688 52.328125 126.703125 52.726562 126.304688 C 53.128906 125.90625 53.628906 125.703125 54.128906 125.703125 L 69.726562 125.703125 C 70.226562 125.703125 70.828125 125.90625 71.128906 126.304688 C 71.425781 126.605469 71.628906 127.203125 71.527344 127.703125" fill="#100f0d"/></g><g id="change1_6"><path d="M 72.027344 125.703125 L 72.027344 126.703125 C 72.027344 127.40625 71.425781 128.003906 70.726562 128.003906 L 52.828125 128.003906 C 52.128906 128.003906 51.527344 127.40625 51.527344 126.703125 L 51.527344 125.703125 C 51.527344 125.003906 52.128906 124.40625 52.828125 124.40625 L 53.726562 124.40625 L 54.628906 122.003906 L 68.828125 122.003906 L 69.828125 124.40625 L 70.726562 124.40625 C 71.527344 124.503906 72.027344 125.003906 72.027344 125.703125" fill="#fff"/></g><g id="change2_15"><path d="M 71.527344 126.804688 C 71.527344 127.203125 71.226562 127.605469 70.726562 127.605469 L 52.828125 127.605469 C 52.425781 127.605469 52.027344 127.304688 52.027344 126.804688 L 52.027344 125.804688 C 52.027344 125.40625 52.328125 125.003906 52.828125 125.003906 L 70.726562 125.003906 C 71.128906 125.003906 71.527344 125.304688 71.527344 125.804688 Z M 55.027344 122.503906 L 68.527344 122.503906 L 69.128906 123.90625 L 54.527344 123.90625 Z M 70.828125 124.003906 L 70.226562 124.003906 L 69.226562 121.605469 L 54.328125 121.605469 L 53.425781 124.003906 L 52.925781 124.003906 C 51.925781 124.003906 51.128906 124.804688 51.128906 125.804688 L 51.128906 126.804688 C 51.128906 127.804688 51.925781 128.605469 52.925781 128.605469 L 70.828125 128.605469 C 71.828125 128.605469 72.628906 127.804688 72.628906 126.804688 L 72.628906 125.804688 C 72.527344 124.703125 71.726562 124.003906 70.828125 124.003906" fill="#100f0d"/></g><g id="change4_4"><path d="M 67.726562 139.90625 C 69.027344 140.003906 70.527344 140.40625 70.027344 141.503906 C 69.527344 142.804688 66.527344 143.003906 64.527344 143.105469 C 65.925781 143.203125 67.628906 143.503906 67.828125 144.605469 C 68.226562 146.503906 62.925781 146.804688 55.128906 147.804688 C 55.128906 147.804688 51.628906 152.804688 43.027344 155.304688 C 33.425781 160.105469 10.226562 171.40625 4.425781 170.105469 C -2.871094 168.503906 -0.472656 155.703125 6.726562 150.304688 C 12.527344 146.003906 32.726562 146.003906 40.328125 146.105469 C 40.328125 146.105469 47.726562 140.203125 49.828125 134.503906 C 51.925781 128.804688 66.527344 132.003906 68.226562 133.605469 C 69.628906 134.90625 67.726562 135.605469 64.726562 135.605469 C 67.027344 135.703125 71.128906 136.203125 71.328125 137.90625 C 71.425781 139.503906 69.328125 139.804688 67.726562 139.90625" fill="#b56951"/></g><g id="change2_16"><path d="M 49.925781 137.003906 L 50.726562 137.503906 L 51.828125 135.804688 L 51.027344 135.304688 Z M 53.328125 148.304688 L 55.128906 148.304688 L 55.128906 147.304688 L 53.328125 147.304688 Z M 63.628906 143.703125 L 64.628906 143.605469 L 64.527344 142.605469 L 55.527344 143.503906 L 55.628906 144.503906 L 62.425781 143.90625 C 62.925781 144.503906 63.925781 145.40625 65.128906 145.40625 C 65.527344 145.40625 66.027344 145.304688 66.425781 145.003906 L 65.925781 144.105469 C 64.925781 144.605469 64.128906 144.105469 63.628906 143.703125 Z M 71.726562 137.90625 C 71.027344 136.105469 69.128906 135.804688 66.226562 135.40625 C 65.828125 135.304688 65.425781 135.304688 64.925781 135.203125 C 61.226562 134.703125 54.128906 136.003906 53.828125 136.105469 L 54.027344 137.105469 C 54.128906 137.105469 61.328125 135.703125 64.828125 136.203125 C 65.226562 136.304688 65.628906 136.304688 65.925781 136.40625 L 65.628906 136.503906 C 66.027344 137.40625 67.027344 138.804688 68.726562 138.804688 C 69.027344 138.804688 69.425781 138.703125 69.828125 138.605469 L 69.527344 137.703125 C 68.128906 138.203125 67.226562 137.105469 66.828125 136.503906 C 69.328125 136.804688 70.425781 137.105469 70.925781 138.203125 C 70.925781 138.203125 71.027344 138.40625 70.828125 138.605469 C 70.527344 138.90625 69.628906 139.605469 65.828125 139.304688 C 59.328125 138.804688 54.828125 139.804688 54.628906 139.804688 L 54.828125 140.804688 C 54.828125 140.804688 59.226562 139.90625 65.226562 140.304688 L 64.726562 140.605469 C 64.726562 140.703125 65.828125 142.003906 67.128906 142.105469 C 67.226562 142.105469 67.226562 142.105469 67.328125 142.105469 C 67.828125 142.105469 68.328125 141.90625 68.726562 141.503906 L 68.027344 140.703125 C 67.726562 141.003906 67.425781 141.105469 67.128906 141.003906 C 66.628906 140.90625 66.027344 140.503906 65.726562 140.203125 C 68.726562 140.40625 70.726562 140.003906 71.425781 139.105469 C 72.027344 138.605469 71.726562 137.90625 71.726562 137.90625 Z M 50.027344 135.605469 C 49.828125 135.90625 45.128906 143.304688 40.628906 146.703125 L 40.527344 146.804688 L 40.328125 146.804688 C 40.027344 146.804688 7.726562 145.304688 3.425781 154.804688 L 2.527344 154.40625 C 6.925781 144.503906 37.328125 145.605469 40.226562 145.804688 C 44.328125 142.703125 48.628906 136.003906 49.128906 135.203125 C 49.226562 134.804688 49.527344 133.40625 50.828125 132.605469 C 50.925781 132.503906 51.027344 132.503906 51.226562 132.40625 C 52.628906 131.503906 54.925781 130.003906 64.726562 131.90625 L 64.527344 132.804688 C 64.828125 133.304688 65.328125 134.003906 66.027344 134.203125 C 66.527344 134.40625 67.027344 134.304688 67.628906 133.90625 L 68.128906 134.804688 C 67.628906 135.105469 67.027344 135.304688 66.527344 135.304688 C 66.226562 135.304688 66.027344 135.304688 65.726562 135.203125 C 64.226562 134.703125 63.425781 132.90625 63.425781 132.804688 L 63.628906 132.703125 C 55.128906 131.203125 53.128906 132.503906 51.828125 133.203125 C 51.726562 133.304688 51.527344 133.40625 51.425781 133.503906 C 50.328125 134.105469 50.128906 135.40625 50.128906 135.503906 L 50.027344 135.605469" fill="#100f0d"/></g><g id="change4_5"><path d="M 421.328125 327.503906 L 417.929688 335.40625 C 417.929688 335.40625 417.628906 347.40625 424.527344 344.804688 C 431.429688 342.207031 434.726562 328.105469 434.726562 328.105469 Z M 404.429688 354.90625 L 404.429688 365.90625 C 404.429688 365.90625 404.429688 365.90625 399.027344 363.605469 C 393.628906 361.304688 387.628906 367.707031 387.628906 367.707031 L 387.628906 354.90625 C 387.628906 352.90625 391.429688 351.207031 396.027344 351.207031 C 400.726562 351.304688 404.429688 352.90625 404.429688 354.90625" fill="#b56951"/></g><g id="change3_4"><path d="M 456.828125 193.105469 C 461.128906 213.605469 458.226562 240.203125 457.226562 266.003906 C 456.226562 294.003906 439.328125 318.707031 437.226562 326.90625 C 432.128906 346.605469 417.128906 328.605469 417.128906 328.605469 C 429.226562 289.503906 415.128906 219.003906 415.128906 219.003906 L 409.929688 282.003906 L 408.527344 357.707031 C 395.929688 365.207031 382.929688 359.804688 382.929688 359.804688 L 379.027344 282.40625 L 368.429688 203.804688 L 371.128906 199.804688 C 372.828125 200.90625 374.828125 201.503906 376.828125 201.503906 C 384.027344 201.503906 389.828125 194.003906 389.828125 184.605469 C 389.828125 182.703125 389.628906 180.90625 389.128906 179.203125 L 446.328125 179.203125 L 451.429688 198.40625 L 455.726562 197.304688 L 456.828125 193.105469" fill="#59c1b4"/></g><g id="change2_17"><path d="M 431.726562 179.203125 L 388.027344 179.203125 L 388.027344 183.105469 L 431.726562 183.105469 Z M 458.328125 208.003906 C 458.328125 208.605469 458.226562 272.804688 455.027344 280.304688 C 454.929688 280.605469 445.027344 312.003906 437.429688 325.207031 L 437.328125 325.304688 C 436.726562 328.003906 434.429688 335.105469 431.429688 335.207031 C 431.128906 335.207031 430.828125 335.207031 430.628906 335.207031 C 427.226562 335.40625 424.726562 335.503906 417.628906 328.207031 L 416.929688 328.90625 C 423.226562 335.40625 426.226562 336.304688 429.128906 336.304688 C 429.628906 336.304688 430.226562 336.304688 430.726562 336.207031 C 431.027344 336.207031 431.226562 336.207031 431.527344 336.207031 C 435.628906 336.003906 437.929688 326.90625 438.328125 325.605469 C 445.929688 312.203125 455.929688 280.804688 456.027344 280.605469 C 459.328125 272.90625 459.429688 210.605469 459.429688 207.90625 L 458.328125 207.90625 Z M 389.726562 205.105469 L 396.027344 233.40625 L 397.027344 233.203125 L 390.726562 204.90625 Z M 390.726562 193.90625 L 389.726562 193.804688 L 384.328125 242.203125 L 385.328125 242.304688 Z M 440.527344 231.003906 L 438.726562 200.40625 L 437.726562 200.503906 L 439.527344 231.105469 Z M 450.726562 240.90625 L 443.828125 200.304688 L 442.828125 200.503906 L 449.726562 241.105469 Z M 433.929688 200.703125 L 415.828125 219.203125 L 410.628906 282.003906 L 409.128906 357.90625 L 408.929688 358.003906 C 408.828125 358.105469 403.128906 362.40625 394.027344 362.40625 C 390.726562 362.40625 386.929688 361.804688 382.726562 360.207031 L 383.128906 359.304688 C 396.726562 364.605469 406.628906 358.40625 408.128906 357.40625 L 409.527344 282.003906 L 414.726562 218.804688 L 415.628906 217.90625 L 415.628906 183.003906 L 416.628906 183.003906 L 416.628906 216.804688 L 433.128906 200.003906 L 433.929688 200.703125" fill="#100f0d"/></g><g id="change1_7"><path d="M 418.226562 183.105469 L 409.527344 183.105469 L 409.527344 179.203125 L 418.226562 179.203125 L 418.226562 183.105469" fill="#fff"/></g><g id="change2_18"><path d="M 410.027344 182.605469 L 417.726562 182.605469 L 417.726562 179.703125 L 410.027344 179.703125 Z M 418.726562 183.605469 L 409.027344 183.605469 L 409.027344 178.703125 L 418.726562 178.703125 L 418.726562 183.605469" fill="#100f0d"/></g><g clip-path="url(#a)" id="change2_1"><path d="M 429.929688 377.40625 C 426.128906 377.40625 421.929688 376.304688 417.929688 373.105469 C 417.527344 375.605469 418.328125 378.90625 424.429688 380.003906 C 431.527344 381.207031 444.429688 378.90625 442.027344 374.003906 C 439.027344 375.605469 434.726562 377.40625 429.929688 377.40625 Z M 411.328125 348.503906 L 411.027344 350.003906 C 410.929688 350.503906 411.027344 351.003906 411.429688 351.304688 C 412.628906 352.605469 415.527344 355.90625 417.628906 360.207031 C 417.929688 354.503906 412.828125 349.707031 411.328125 348.503906 Z M 418.328125 361.90625 C 418.328125 361.90625 418.328125 362.003906 418.429688 362.003906 C 418.429688 363.105469 418.226562 364.207031 418.027344 365.503906 C 417.429688 368.003906 417.628906 370.105469 418.226562 371.804688 C 418.226562 371.90625 418.128906 372.003906 418.128906 372.105469 L 418.226562 372.003906 C 427.726562 379.707031 437.726562 375.40625 442.527344 372.503906 C 443.128906 368.707031 439.027344 363.707031 436.429688 359.40625 C 432.828125 353.503906 435.527344 337.90625 435.527344 337.90625 C 428.726562 334.207031 422.027344 339.605469 422.027344 339.605469 C 420.527344 336.707031 418.527344 332.707031 418.527344 332.707031 C 418.527344 332.707031 410.328125 341.503906 411.929688 347.503906 C 413.226562 348.707031 420.027344 354.707031 418.328125 361.90625 Z M 398.226562 409.40625 C 397.128906 409.503906 396.128906 409.605469 395.226562 409.605469 C 387.128906 409.605469 382.027344 404.90625 379.027344 401.003906 C 378.726562 401.90625 378.527344 403.605469 379.828125 404.90625 C 381.628906 406.90625 390.628906 414.804688 399.527344 413.40625 C 407.628906 412.105469 416.429688 404.90625 414.527344 399.207031 C 412.328125 403.105469 407.628906 408.105469 398.226562 409.40625 Z M 398.128906 408.40625 C 408.929688 406.90625 413.027344 400.605469 414.628906 396.90625 C 415.828125 390.605469 408.328125 387.105469 406.328125 361.707031 C 406.328125 361.707031 403.828125 362.90625 403.929688 365.707031 C 403.929688 365.707031 396.128906 357.503906 388.929688 366.105469 C 388.929688 366.105469 387.527344 362.90625 385.828125 362.90625 C 385.828125 362.90625 383.726562 382.105469 381.828125 386.003906 C 380.527344 388.605469 377.328125 393.804688 378.929688 399.105469 C 381.628906 403.40625 387.628906 409.804688 398.128906 408.40625 Z M 385.929688 185.804688 L 385.726562 181.804688 L 365.328125 186.105469 L 365.429688 190.105469 Z M 394.929688 213.90625 C 395.226562 215.90625 393.828125 217.703125 391.828125 218.105469 L 368.128906 222.203125 C 367.527344 222.304688 366.929688 222.503906 366.328125 222.703125 C 365.328125 223.105469 363.226562 222.804688 363.429688 215.003906 C 363.628906 206.105469 361.429688 175.503906 360.726562 166.503906 C 360.726562 166.003906 360.527344 165.503906 360.328125 165.003906 C 361.128906 165.105469 362.027344 165.203125 362.828125 165.203125 C 365.628906 165.203125 368.226562 164.503906 370.628906 163.105469 C 382.429688 156.105469 383.226562 134.304688 383.226562 133.304688 L 382.226562 133.304688 C 382.226562 133.503906 381.429688 155.605469 370.027344 162.203125 C 366.929688 164.003906 363.429688 164.503906 359.328125 163.804688 C 359.027344 163.605469 358.828125 163.40625 358.429688 163.304688 C 353.828125 161.304688 343.328125 153.804688 347.429688 128.503906 C 351.527344 103.605469 353.027344 92.003906 353.429688 88.003906 L 360.929688 101.605469 C 354.929688 114.703125 349.027344 130.503906 349.429688 140.804688 L 350.429688 140.804688 C 350.027344 129.503906 357.527344 110.804688 364.226562 96.90625 C 365.128906 100.105469 367.828125 107.804688 374.527344 111.703125 C 377.226562 113.304688 380.328125 114.105469 383.628906 114.105469 C 384.726562 114.105469 385.929688 114.003906 387.027344 113.804688 C 385.628906 120.503906 384.226562 126.605469 383.828125 128.503906 C 383.726562 128.90625 383.726562 129.304688 383.828125 129.804688 Z M 361.527344 100.605469 C 367.128906 88.703125 372.726562 79.203125 373.726562 78.40625 C 375.828125 76.90625 378.328125 78.605469 379.429688 79.703125 L 378.726562 80.40625 C 378.726562 80.40625 376.328125 77.90625 374.429688 79.203125 C 373.628906 79.804688 369.628906 86.503906 365.128906 95.503906 C 365.429688 96.90625 367.828125 106.503906 375.328125 110.90625 C 378.828125 113.003906 382.929688 113.605469 387.527344 112.804688 C 389.429688 104.105469 391.527344 94.804688 392.027344 93.003906 C 392.527344 91.40625 391.929688 90.105469 391.226562 89.203125 C 390.226562 88.003906 390.128906 86.40625 390.828125 85.105469 C 393.828125 79.304688 400.328125 66.105469 395.128906 66.90625 C 388.527344 68.003906 354.328125 82.003906 352.828125 82.804688 C 352.527344 83.003906 352.328125 83.304688 352.328125 83.605469 Z M 366.328125 186.90625 L 366.429688 188.90625 L 384.828125 185.003906 L 384.726562 183.003906 Z M 432.726562 175.203125 L 452.628906 169.304688 L 452.128906 165.304688 L 432.128906 171.203125 Z M 451.929688 198.304688 C 444.929688 201.304688 430.027344 208.304688 424.128906 211.105469 C 423.027344 211.605469 421.628906 210.804688 421.726562 209.503906 L 423.328125 172.703125 L 447.828125 107.90625 L 437.429688 100.804688 L 445.429688 98.40625 L 434.527344 68.003906 C 444.726562 70.203125 468.328125 75.105469 469.128906 76.605469 C 469.628906 77.503906 469.628906 78.503906 469.527344 79.40625 C 466.328125 90.605469 454.828125 132.90625 457.226562 157.003906 C 453.527344 168.003906 450.527344 182.304688 451.929688 198.304688 Z M 481.128906 127.105469 C 478.726562 111.90625 471.628906 88.804688 469.726562 82.503906 C 465.929688 96.304688 456.726562 132.203125 458.128906 154.703125 C 462.628906 142.503906 467.726562 134.90625 467.929688 134.703125 L 468.726562 135.304688 C 468.527344 135.605469 450.027344 162.804688 453.027344 197.90625 C 455.628906 210.203125 459.527344 207.804688 459.527344 207.804688 C 490.828125 169.703125 481.128906 127.105469 481.128906 127.105469 Z M 427.929688 69.703125 L 423.527344 169.40625 L 446.628906 108.203125 L 435.226562 100.304688 L 444.226562 97.605469 L 433.429688 67.703125 C 431.929688 67.40625 430.828125 67.105469 430.328125 67.003906 C 426.726562 66.105469 420.527344 65.703125 420.527344 65.703125 L 421.527344 72.003906 Z M 451.328125 166.605469 L 451.527344 168.605469 L 433.527344 173.90625 L 433.226562 172.003906 L 451.328125 166.605469" fill="#100f0d"/></g><g id="change2_19"><path d="M 92.828125 70.90625 C 91.726562 69.304688 89.828125 68.804688 88.828125 68.605469 C 88.425781 68.503906 88.128906 68.503906 88.027344 68.503906 L 87.925781 69.503906 C 87.925781 69.503906 88.226562 69.503906 88.527344 69.605469 C 89.425781 69.804688 91.027344 70.203125 91.925781 71.503906 C 92.726562 72.605469 92.828125 74.105469 92.328125 76.003906 L 93.328125 76.304688 C 93.925781 74.105469 93.726562 72.304688 92.828125 70.90625" fill="#100f0d"/></g><g id="change4_6"><path d="M 89.226562 62.605469 C 89.226562 63.90625 89.128906 65.304688 88.925781 66.804688 C 88.828125 67.40625 88.828125 68.003906 88.726562 68.605469 C 88.628906 68.90625 88.628906 69.304688 88.527344 69.605469 C 87.328125 76.304688 84.027344 83.605469 76.128906 87.503906 L 75.425781 93.203125 L 77.828125 94.90625 L 80.628906 96.90625 C 80.628906 96.90625 70.925781 113.40625 64.328125 112.703125 C 57.726562 112.003906 51.128906 92.40625 51.128906 92.40625 L 56.925781 91.40625 L 56.925781 90.503906 L 57.628906 80.203125 C 57.628906 80.203125 54.425781 75.40625 53.925781 73.003906 C 53.925781 73.003906 52.726562 73.003906 51.425781 72.304688 C 51.027344 72.105469 50.527344 71.90625 50.128906 71.605469 C 48.828125 70.605469 47.628906 69.003906 47.128906 66.40625 C 46.628906 63.703125 47.425781 61.40625 48.628906 60.105469 C 50.128906 58.503906 52.425781 58.304688 54.726562 60.503906 C 55.027344 60.804688 55.226562 61.003906 55.527344 61.40625 L 56.527344 65.703125 L 56.828125 60.503906 C 58.128906 62.003906 62.027344 65.203125 58.425781 68.90625 L 59.027344 68.703125 C 61.726562 64.605469 58.425781 61.703125 56.925781 60.203125 C 57.425781 58.304688 58.328125 56.40625 58.925781 54.90625 C 62.027344 51.605469 65.828125 48.703125 68.425781 46.105469 C 68.726562 46.003906 69.128906 45.804688 69.425781 45.703125 C 69.628906 45.605469 69.726562 45.605469 69.925781 45.503906 C 70.128906 45.40625 70.226562 45.40625 70.425781 45.304688 C 70.925781 45.203125 71.425781 45.003906 71.828125 45.003906 C 71.925781 45.003906 72.128906 45.003906 72.226562 44.90625 C 72.726562 46.605469 77.628906 61.003906 88.628906 62.40625 C 88.925781 62.40625 89.027344 62.503906 89.226562 62.605469" fill="#b56951"/></g><g id="change1_8"><path d="M 66.527344 77.203125 C 73.226562 87.90625 79.726562 79.40625 79.726562 79.40625 C 73.527344 81.304688 66.726562 77.203125 66.726562 77.203125 Z M 87.628906 65.105469 C 85.726562 63.105469 80.128906 67.40625 80.128906 67.40625 C 83.425781 76.40625 89.527344 67.105469 87.628906 65.105469 Z M 63.527344 63.703125 C 63.527344 63.703125 71.425781 60.003906 72.925781 63.304688 C 74.425781 66.605469 70.027344 73.105469 63.527344 63.703125" fill="#fff"/></g><g id="change2_20"><path d="M 90.328125 66.003906 L 88.226562 65.703125 C 88.128906 65.003906 87.828125 64.304688 87.027344 63.804688 C 85.128906 62.804688 80.128906 67.304688 80.128906 67.304688 C 80.128906 67.304688 83.527344 64.703125 86.027344 64.605469 C 86.425781 64.605469 86.726562 64.605469 87.027344 64.703125 C 86.128906 65.203125 84.027344 66.40625 83.527344 68.605469 C 82.925781 71.40625 85.226562 72.105469 87.328125 68.40625 C 87.328125 68.40625 88.027344 67.304688 88.027344 66.105469 C 88.128906 66.703125 88.027344 67.203125 88.027344 67.203125 C 88.027344 67.203125 88.128906 66.90625 88.226562 66.503906 Z M 69.925781 88.605469 C 67.925781 88.105469 60.628906 82.105469 57.925781 79.804688 L 57.328125 80.503906 C 57.726562 80.804688 67.027344 88.90625 69.726562 89.503906 C 70.027344 89.605469 70.425781 89.605469 70.828125 89.605469 C 73.328125 89.605469 76.226562 87.90625 76.425781 87.804688 L 75.925781 87.003906 C 75.828125 87.105469 72.328125 89.203125 69.925781 88.605469 Z M 52.328125 62.105469 C 50.527344 61.203125 48.828125 62.105469 48.726562 62.105469 L 49.128906 62.90625 C 49.128906 62.90625 50.527344 62.203125 51.828125 62.90625 C 53.027344 63.503906 53.828125 64.90625 54.226562 67.003906 L 55.128906 66.804688 C 54.726562 64.40625 53.828125 62.804688 52.328125 62.105469 Z M 72.628906 75.203125 L 72.828125 76.105469 L 75.726562 75.304688 L 75.527344 74.40625 Z M 79.925781 66.804688 C 79.828125 65.703125 79.726562 64.703125 79.828125 64.203125 C 80.128906 62.304688 83.128906 60.605469 83.226562 60.503906 L 82.828125 59.703125 C 82.726562 59.804688 79.328125 61.605469 79.027344 64.003906 C 78.925781 64.605469 79.027344 65.605469 79.128906 66.804688 C 79.425781 70.105469 79.828125 75.203125 76.925781 76.003906 L 77.128906 76.90625 C 80.726562 76.003906 80.226562 70.503906 79.925781 66.804688 Z M 71.226562 62.605469 C 69.226562 63.105469 66.628906 68.304688 69.925781 68.605469 C 73.527344 68.90625 73.226562 64.40625 73.226562 64.40625 C 73.226562 64.203125 73.226562 63.90625 73.226562 63.703125 L 74.828125 63.703125 L 73.027344 62.90625 C 72.628906 62.003906 71.726562 61.503906 69.828125 61.503906 C 66.726562 61.503906 63.527344 63.703125 63.527344 63.703125 C 63.527344 63.703125 66.128906 62.90625 69.425781 62.40625 C 70.128906 62.304688 70.726562 62.40625 71.226562 62.605469 Z M 78.328125 80.203125 C 74.128906 80.90625 69.925781 79.304688 67.828125 78.304688 C 69.628906 80.703125 71.628906 82.003906 73.628906 82.105469 C 75.628906 82.203125 77.328125 81.105469 78.328125 80.203125 Z M 79.628906 78.90625 L 81.027344 78.503906 L 80.128906 79.605469 C 80.027344 79.804688 77.527344 83.003906 73.828125 83.003906 C 73.726562 83.003906 73.628906 83.003906 73.527344 83.003906 C 70.925781 82.90625 68.527344 81.105469 66.425781 77.804688 C 66.128906 78.003906 65.726562 78.105469 65.328125 78.203125 L 65.328125 77.203125 C 66.226562 77.105469 67.128906 76.203125 67.425781 75.804688 L 68.128906 76.40625 C 68.128906 76.40625 67.925781 76.703125 67.527344 77.003906 C 69.128906 77.90625 74.628906 80.503906 79.628906 78.90625 Z M 70.425781 56.90625 C 69.226562 56.804688 63.527344 55.304688 63.527344 55.304688 C 63.527344 55.304688 69.328125 55.203125 71.527344 55.40625 C 73.726562 55.605469 78.628906 58.804688 76.226562 59.40625 C 73.726562 60.003906 71.628906 57.003906 70.425781 56.90625" fill="#100f0d"/></g><g id="change2_21"><path d="M 48.425781 99.203125 C 48.527344 99.203125 48.527344 99.203125 48.425781 99.203125 Z M 76.128906 55.804688 C 73.425781 52.90625 72.925781 48.503906 72.828125 46.304688 C 72.925781 46.503906 73.027344 46.703125 73.128906 47.003906 C 73.328125 47.503906 73.628906 48.105469 73.925781 48.804688 C 74.027344 49.003906 74.128906 49.203125 74.226562 49.503906 C 74.328125 49.703125 74.425781 50.003906 74.527344 50.203125 C 74.726562 50.503906 74.828125 50.804688 75.027344 51.105469 C 75.226562 51.40625 75.328125 51.703125 75.527344 52.105469 C 75.726562 52.40625 75.828125 52.605469 76.027344 52.90625 C 76.527344 53.703125 77.128906 54.605469 77.726562 55.40625 C 77.925781 55.703125 78.128906 55.90625 78.425781 56.203125 C 78.628906 56.503906 78.828125 56.703125 79.027344 56.90625 C 79.226562 57.203125 79.527344 57.40625 79.726562 57.605469 C 79.925781 57.804688 80.226562 58.003906 80.425781 58.203125 L 80.527344 58.304688 C 78.828125 58.003906 77.328125 57.105469 76.128906 55.804688 Z M 72.328125 44.804688 Z M 57.726562 43.503906 L 63.226562 47.605469 L 62.628906 48.40625 L 56.925781 44.105469 L 56.828125 44.203125 L 59.425781 52.304688 L 58.425781 52.605469 L 56.425781 46.503906 L 56.226562 57.804688 L 55.226562 57.804688 L 55.425781 45.503906 C 55.226562 45.804688 54.925781 46.003906 54.726562 46.304688 L 54.027344 45.703125 C 57.925781 40.90625 63.128906 39.304688 67.226562 38.90625 C 66.425781 32.703125 60.828125 32.804688 60.527344 32.804688 L 60.527344 31.804688 C 60.628906 31.804688 67.425781 31.605469 68.226562 38.804688 C 71.226562 38.605469 73.425781 39.105469 73.425781 39.105469 L 73.226562 40.105469 C 73.128906 40.105469 64.527344 38.304688 57.726562 43.503906 Z M 72.925781 33.304688 C 74.628906 35.105469 74.226562 38.304688 73.925781 39.804688 C 73.828125 39.804688 73.726562 39.703125 73.628906 39.703125 C 73.425781 37.804688 72.726562 34.203125 69.828125 32.003906 C 71.128906 32.105469 72.128906 32.503906 72.925781 33.304688 Z M 52.726562 79.105469 C 52.726562 81.503906 51.726562 83.804688 49.828125 86.003906 C 49.925781 85.90625 49.925781 85.804688 50.027344 85.605469 C 53.628906 78.605469 49.527344 74.203125 48.828125 70.304688 C 50.527344 72.203125 52.726562 75.40625 52.726562 79.105469 Z M 89.226562 51.003906 C 87.925781 47.105469 84.027344 42.605469 78.226562 41.804688 C 77.128906 41.105469 75.925781 40.503906 74.726562 40.105469 C 75.027344 38.605469 75.527344 34.804688 73.527344 32.605469 C 72.328125 31.304688 70.425781 30.804688 67.925781 31.003906 C 66.226562 30.304688 64.027344 30.003906 61.226562 30.304688 C 48.328125 32.003906 43.628906 41.105469 42.328125 51.304688 C 41.027344 61.503906 37.027344 59.703125 33.726562 66.703125 C 30.425781 73.703125 41.527344 77.703125 36.828125 83.003906 C 32.328125 88.203125 26.027344 89.605469 27.226562 98.304688 C 31.027344 95.003906 38.128906 93.605469 43.328125 93.003906 C 44.128906 92.105469 44.828125 91.105469 45.226562 90.003906 C 47.527344 84.804688 45.027344 79.003906 42.925781 73.90625 L 42.425781 72.605469 C 38.925781 64.003906 43.128906 60.304688 43.328125 60.105469 L 43.628906 60.503906 L 43.925781 60.90625 C 43.726562 61.003906 40.027344 64.304688 43.328125 72.203125 L 43.828125 73.503906 C 45.925781 78.503906 48.527344 84.804688 46.128906 90.40625 C 45.726562 91.304688 45.328125 92.105469 44.726562 92.90625 C 45.828125 92.804688 46.828125 92.703125 47.628906 92.703125 C 47.726562 91.503906 48.027344 90.105469 48.628906 88.605469 C 51.828125 85.804688 53.527344 82.605469 53.527344 79.304688 C 53.527344 76.703125 52.527344 74.304688 51.328125 72.40625 C 50.925781 72.203125 50.527344 71.90625 50.128906 71.605469 C 48.828125 70.605469 47.628906 69.003906 47.226562 66.503906 C 46.726562 63.804688 47.328125 61.605469 48.527344 60.304688 C 48.726562 60.105469 48.828125 60.003906 49.027344 59.90625 C 48.128906 53.90625 52.128906 48.105469 52.328125 47.90625 L 53.128906 48.503906 C 53.128906 48.605469 49.328125 53.90625 49.925781 59.40625 C 50.527344 59.105469 51.328125 59.105469 52.027344 59.203125 C 52.128906 59.203125 52.328125 59.304688 52.425781 59.304688 C 52.628906 59.40625 52.828125 59.40625 52.925781 59.503906 C 53.027344 59.503906 53.128906 59.605469 53.226562 59.703125 C 53.328125 59.804688 53.527344 59.90625 53.628906 60.003906 C 53.925781 60.203125 54.226562 60.503906 54.527344 60.703125 C 54.828125 61.003906 55.027344 61.203125 55.328125 61.605469 L 56.328125 65.90625 L 57.425781 61.605469 C 58.726562 63.105469 60.425781 65.90625 58.328125 69.105469 L 59.128906 69.605469 C 61.828125 65.503906 59.128906 61.90625 57.726562 60.40625 C 58.226562 58.503906 58.726562 56.804688 59.425781 55.40625 C 62.527344 52.105469 65.726562 48.90625 68.328125 46.304688 C 68.628906 46.203125 69.027344 46.003906 69.328125 45.90625 C 69.527344 45.804688 69.628906 45.804688 69.828125 45.703125 C 70.027344 45.605469 70.128906 45.605469 70.328125 45.503906 C 70.828125 45.40625 71.226562 45.304688 71.628906 45.203125 C 71.628906 46.203125 71.425781 52.605469 75.128906 56.703125 C 76.828125 58.605469 79.128906 59.703125 81.925781 60.003906 C 82.027344 60.105469 82.128906 60.105469 82.226562 60.203125 C 82.425781 60.304688 82.527344 60.40625 82.726562 60.503906 C 82.726562 60.503906 82.828125 60.503906 82.828125 60.605469 C 82.925781 60.703125 83.128906 60.804688 83.226562 60.804688 C 83.328125 60.804688 83.425781 60.90625 83.527344 60.90625 C 83.628906 61.003906 83.828125 61.105469 83.925781 61.105469 C 84.128906 61.203125 84.328125 61.304688 84.527344 61.40625 L 84.628906 61.40625 C 84.828125 61.503906 85.128906 61.605469 85.328125 61.703125 L 85.425781 61.703125 C 85.628906 61.804688 85.828125 61.90625 86.027344 61.90625 C 86.128906 61.90625 86.328125 62.003906 86.425781 62.003906 C 87.027344 62.203125 87.628906 62.304688 88.328125 62.40625 C 88.527344 62.503906 88.726562 62.605469 88.828125 62.703125 C 91.226562 63.804688 93.828125 64.304688 96.527344 63.804688 C 97.027344 63.703125 91.027344 56.304688 89.226562 51.003906" fill="#100f0d"/></g><g id="change3_5"><path d="M 53.726562 71.003906 C 53.726562 71.605469 53.328125 72.003906 52.726562 72.003906 C 52.128906 72.003906 51.726562 71.605469 51.726562 71.003906 C 51.726562 70.40625 52.128906 70.003906 52.726562 70.003906 C 53.328125 70.003906 53.726562 70.40625 53.726562 71.003906" fill="#59c1b4"/></g><g id="change5_1"><path d="M 185.328125 66.40625 C 180.328125 64.605469 177.226562 59.105469 176.328125 57.203125 C 176.328125 57.203125 176.226562 57.203125 176.128906 57.203125 C 176.128906 58.804688 176.527344 61.503906 178.527344 63.503906 C 180.128906 65.105469 182.429688 66.105469 185.328125 66.40625 Z M 190.328125 89.90625 C 189.027344 92.90625 187.226562 95.40625 185.128906 97.40625 L 186.828125 105.503906 C 184.527344 114.203125 174.828125 117.003906 174.828125 117.003906 C 167.828125 117.203125 161.429688 106.203125 161.429688 106.203125 L 163.328125 96.304688 C 161.726562 94.503906 160.328125 92.40625 159.328125 89.90625 C 153.828125 90.703125 149.628906 78.90625 152.226562 76.203125 C 152.929688 75.40625 153.726562 75.203125 154.527344 75.40625 C 155.527344 76.605469 156.226562 77.40625 156.226562 77.40625 L 159.429688 79.90625 L 159.527344 71.90625 C 158.726562 66.40625 165.128906 58.90625 165.128906 58.90625 C 165.128906 58.90625 166.527344 58.804688 168.429688 58.503906 C 170.527344 58.203125 173.226562 57.90625 175.226562 57.503906 C 175.328125 59.304688 175.828125 62.105469 177.929688 64.203125 C 180.027344 66.40625 183.226562 67.503906 187.527344 67.503906 C 188.527344 67.503906 189.527344 67.40625 190.527344 67.304688 L 192.027344 75.503906 L 192.226562 76.605469 L 193.628906 75.503906 C 193.726562 75.503906 193.929688 75.40625 194.027344 75.40625 C 194.828125 75.203125 195.726562 75.40625 196.429688 76.203125 C 198.828125 78.703125 195.328125 89.203125 190.328125 89.90625" fill="#f7ccc6"/></g><g id="change1_9"><path d="M 172.226562 77.804688 C 172.226562 77.804688 171.027344 73.703125 167.628906 73.90625 C 164.328125 74.203125 162.226562 76.40625 162.226562 76.40625 C 162.226562 76.40625 169.628906 87.003906 172.226562 77.804688 Z M 180.628906 78.40625 C 180.628906 78.40625 180.726562 76.105469 184.828125 74.304688 C 188.929688 72.503906 189.027344 76.703125 189.027344 76.703125 C 186.429688 86.703125 180.628906 78.40625 180.628906 78.40625" fill="#fff"/></g><g id="change2_22"><path d="M 192.726562 81.804688 C 193.226562 79.703125 196.027344 78.203125 196.027344 78.203125 L 195.527344 77.304688 C 195.429688 77.304688 194.128906 78.105469 193.027344 79.304688 C 192.429688 77.304688 191.828125 75.703125 192.328125 75.40625 L 192.226562 75.703125 C 192.226562 75.90625 192.027344 91.105469 184.828125 97.003906 C 184.726562 97.105469 179.527344 102.003906 175.929688 102.003906 C 172.328125 102.003906 163.726562 95.90625 163.628906 95.804688 L 163.027344 96.605469 C 163.429688 96.90625 171.929688 103.003906 175.929688 103.003906 C 179.128906 103.003906 183.328125 99.703125 184.828125 98.304688 L 186.226562 105.40625 C 185.828125 106.503906 182.726562 114.90625 174.128906 116.40625 L 174.328125 117.40625 C 184.027344 115.605469 187.226562 105.703125 187.226562 105.605469 L 187.226562 105.503906 L 185.628906 97.605469 C 190.128906 93.804688 191.929688 86.90625 192.726562 81.804688 Z M 154.328125 78.605469 C 153.527344 78.40625 153.027344 78.703125 152.929688 78.703125 L 153.429688 79.503906 C 153.429688 79.503906 153.628906 79.40625 154.027344 79.503906 C 154.527344 79.605469 155.628906 80.304688 157.027344 82.90625 L 157.929688 82.40625 C 156.726562 80.304688 155.527344 79.003906 154.328125 78.605469 Z M 168.628906 91.003906 L 168.128906 91.90625 C 171.027344 93.40625 173.628906 93.90625 175.929688 93.90625 C 179.929688 93.90625 182.628906 92.304688 183.628906 91.605469 C 183.929688 91.90625 184.027344 92.105469 184.128906 92.203125 L 185.128906 92.203125 C 185.128906 92.003906 185.128906 91.503906 182.929688 89.503906 L 182.226562 90.203125 C 182.527344 90.40625 182.726562 90.703125 183.027344 90.90625 C 181.429688 92.003906 176.128906 94.90625 168.628906 91.003906 Z M 175.527344 88.105469 L 176.027344 87.304688 C 175.527344 87.003906 173.929688 86.003906 173.027344 86.304688 L 173.328125 87.203125 C 173.628906 87.105469 174.628906 87.503906 175.527344 88.105469 Z M 180.527344 87.105469 L 180.828125 86.203125 C 180.128906 85.90625 178.628906 86.804688 177.726562 87.304688 L 178.226562 88.105469 C 179.226562 87.503906 180.226562 87.105469 180.527344 87.105469 Z M 184.828125 74.804688 C 185.929688 74.40625 186.726562 74.503906 187.328125 74.90625 C 185.828125 75.304688 182.726562 76.90625 184.828125 81.703125 C 184.828125 81.703125 188.027344 82.503906 189.027344 76.90625 L 188.929688 76.703125 C 189.027344 76.804688 189.027344 76.90625 189.027344 76.90625 C 188.929688 74.105469 187.328125 73.203125 184.429688 74.105469 C 181.527344 75.003906 180.628906 78.605469 180.628906 78.605469 C 180.628906 78.605469 181.828125 75.90625 184.828125 74.804688 Z M 162.226562 76.40625 C 162.226562 76.40625 163.328125 73.40625 167.628906 73.40625 C 171.929688 73.40625 172.128906 77.804688 172.128906 77.804688 C 170.828125 83.203125 167.429688 81.304688 167.429688 81.304688 C 166.226562 77.40625 169.128906 75.703125 170.128906 75.203125 C 166.628906 72.40625 162.226562 76.40625 162.226562 76.40625" fill="#100f0d"/></g><g id="change4_7"><path d="M 189.027344 68.703125 C 189.027344 68.703125 182.726562 66.90625 180.628906 70.105469 C 178.527344 73.304688 185.929688 70.804688 187.828125 71.003906 C 189.828125 71.203125 189.027344 68.703125 189.027344 68.703125 Z M 164.027344 68.40625 C 164.027344 68.40625 171.628906 67.304688 172.226562 70.304688 C 172.726562 73.304688 169.429688 70.304688 164.027344 70.304688 C 158.628906 70.203125 164.027344 68.40625 164.027344 68.40625" fill="#b56951"/></g><g id="change4_8"><path d="M 178.527344 63.503906 C 176.527344 61.503906 176.128906 58.804688 176.128906 57.203125 C 176.128906 57.203125 176.226562 57.203125 176.328125 57.203125 C 177.226562 59.105469 180.328125 64.605469 185.328125 66.40625 C 182.429688 66.105469 180.128906 65.105469 178.527344 63.503906 Z M 179.628906 54.003906 L 183.226562 58.203125 L 182.527344 58.804688 L 178.929688 54.605469 Z M 174.027344 54.40625 C 174.027344 54.40625 172.527344 53.304688 171.027344 53.605469 C 170.128906 53.804688 169.429688 54.40625 168.828125 55.40625 C 168.828125 55.503906 168.828125 55.605469 168.828125 55.605469 L 167.828125 55.503906 C 167.828125 55.304688 168.429688 51.503906 170.527344 50.503906 C 171.527344 50.105469 172.628906 50.304688 173.828125 51.203125 L 173.226562 52.003906 C 172.328125 51.304688 171.527344 51.105469 170.828125 51.40625 C 170.128906 51.703125 169.628906 52.40625 169.328125 53.203125 C 169.726562 52.90625 170.226562 52.703125 170.628906 52.605469 C 172.628906 52.203125 174.328125 53.503906 174.429688 53.503906 Z M 166.628906 48.304688 C 167.027344 47.703125 167.828125 47.203125 168.828125 47.003906 C 167.128906 48.503906 166.429688 50.605469 166.226562 51.703125 C 166.027344 50.703125 165.828125 49.304688 166.628906 48.304688 Z M 198.527344 65.90625 C 197.128906 66.203125 195.726562 66.304688 194.628906 66.304688 C 193.726562 66.304688 193.027344 66.203125 192.929688 66.203125 L 193.027344 65.203125 C 193.027344 65.203125 196.226562 65.503906 198.527344 64.804688 C 198.527344 63.203125 198.226562 61.605469 197.726562 60.105469 C 194.828125 62.90625 192.027344 64.40625 189.527344 64.40625 C 189.328125 64.40625 189.128906 64.40625 188.929688 64.40625 C 185.027344 64.003906 183.328125 60.203125 183.226562 60.105469 L 184.128906 59.703125 C 184.128906 59.703125 185.726562 63.105469 189.027344 63.503906 C 191.429688 63.703125 194.328125 62.304688 197.328125 59.203125 C 196.929688 58.203125 196.527344 57.304688 196.027344 56.503906 C 195.429688 57.90625 194.726562 59.003906 193.726562 59.804688 C 192.128906 61.105469 190.429688 61.40625 189.128906 61.40625 C 188.226562 61.40625 187.628906 61.203125 187.527344 61.203125 L 187.726562 60.304688 C 187.726562 60.304688 190.726562 61.003906 193.027344 59.105469 C 194.027344 58.203125 194.828125 57.003906 195.328125 55.40625 C 193.828125 53.105469 192.027344 51.503906 190.527344 51.003906 C 191.628906 50.40625 192.628906 49.40625 193.328125 47.804688 L 192.429688 47.503906 C 191.328125 50.40625 188.726562 50.90625 187.226562 50.90625 C 184.527344 50.40625 182.628906 47.804688 175.628906 46.003906 C 173.726562 45.503906 172.226562 45.503906 170.929688 45.90625 C 168.328125 45.90625 166.527344 46.503906 165.628906 47.804688 C 164.726562 49.105469 164.828125 50.605469 165.027344 51.804688 C 163.628906 51.105469 160.828125 50.703125 157.328125 55.804688 C 157.027344 56.304688 156.726562 56.703125 156.429688 57.105469 C 155.128906 58.203125 153.328125 59.304688 151.726562 59.203125 L 151.628906 60.203125 C 152.726562 60.304688 153.726562 60.003906 154.726562 59.503906 C 151.226562 64.203125 149.226562 66.90625 150.828125 70.105469 C 151.929688 72.203125 153.328125 74.203125 154.429688 75.605469 C 155.429688 76.804688 156.128906 77.605469 156.128906 77.605469 L 159.328125 80.105469 L 159.429688 72.105469 C 158.628906 66.605469 165.027344 59.105469 165.027344 59.105469 C 165.027344 59.105469 166.429688 59.003906 168.328125 58.703125 C 170.429688 58.40625 173.128906 58.105469 175.128906 57.703125 C 175.226562 59.503906 175.726562 62.304688 177.828125 64.40625 C 179.929688 66.605469 183.128906 67.703125 187.429688 67.703125 C 188.429688 67.703125 189.429688 67.605469 190.429688 67.503906 L 191.929688 75.703125 L 192.128906 76.804688 L 193.429688 75.703125 L 193.628906 75.605469 L 193.929688 75.503906 C 195.527344 74.503906 198.429688 68.605469 198.527344 65.90625" fill="#b56951"/></g><g id="change3_6"><path d="M 191.828125 80.105469 C 191.828125 81.804688 190.429688 83.203125 188.726562 83.203125 L 182.328125 83.203125 C 180.628906 83.203125 179.226562 81.804688 179.226562 80.105469 L 179.226562 76.105469 C 179.226562 74.40625 180.628906 73.003906 182.328125 73.003906 L 188.726562 73.003906 C 190.429688 73.003906 191.828125 74.40625 191.828125 76.105469 Z M 173.027344 80.105469 C 173.027344 81.804688 171.628906 83.203125 169.929688 83.203125 L 163.527344 83.203125 C 161.828125 83.203125 160.429688 81.804688 160.429688 80.105469 L 160.429688 76.105469 C 160.429688 74.40625 161.828125 73.003906 163.527344 73.003906 L 169.929688 73.003906 C 171.628906 73.003906 173.027344 74.40625 173.027344 76.105469 Z M 188.726562 71.804688 L 182.328125 71.804688 C 179.929688 71.804688 178.027344 73.703125 178.027344 76.105469 L 178.027344 76.703125 C 177.527344 76.40625 176.828125 76.203125 176.128906 76.203125 C 175.429688 76.203125 174.726562 76.40625 174.226562 76.804688 L 174.226562 76.203125 C 174.226562 73.804688 172.328125 71.90625 169.929688 71.90625 L 163.527344 71.90625 C 161.128906 71.90625 159.226562 73.804688 159.226562 76.203125 L 159.226562 80.203125 C 159.226562 82.605469 161.128906 84.503906 163.527344 84.503906 L 169.929688 84.503906 C 172.328125 84.503906 174.226562 82.605469 174.226562 80.203125 L 174.226562 78.203125 C 174.527344 77.804688 175.226562 77.203125 176.128906 77.203125 C 177.027344 77.203125 177.726562 77.804688 178.027344 78.203125 L 178.027344 80.203125 C 178.027344 82.605469 179.929688 84.503906 182.328125 84.503906 L 188.726562 84.503906 C 191.128906 84.503906 193.027344 82.605469 193.027344 80.203125 L 193.027344 76.203125 C 193.027344 73.703125 191.128906 71.804688 188.726562 71.804688" fill="#59c1b4"/></g><g id="change4_9"><path d="M 310.429688 77.503906 C 316.726562 90.304688 315.226562 100.40625 313.226562 106.304688 C 313.226562 105.90625 313.226562 105.605469 313.226562 105.203125 C 313.429688 93.203125 312.328125 84.203125 310.429688 77.503906 Z M 289.027344 69.203125 C 289.027344 69.105469 286.726562 63.105469 283.828125 62.003906 C 283.128906 61.703125 282.429688 61.804688 281.828125 62.203125 L 280.226562 63.105469 L 281.128906 61.503906 C 281.128906 61.503906 283.226562 57.804688 287.226562 58.90625 L 286.929688 59.90625 C 285.128906 59.40625 283.828125 60.203125 282.929688 60.90625 C 283.328125 60.90625 283.726562 61.003906 284.128906 61.105469 C 287.527344 62.304688 289.828125 68.605469 289.929688 68.90625 Z M 271.929688 79.90625 L 270.929688 79.804688 C 272.429688 67.003906 278.429688 63.40625 278.628906 63.304688 L 279.128906 64.203125 C 279.128906 64.105469 273.429688 67.605469 271.929688 79.90625 Z M 264.027344 134.203125 L 263.226562 133.605469 C 270.628906 124.304688 269.226562 103.003906 269.226562 102.804688 L 270.226562 102.703125 C 270.328125 103.605469 271.628906 124.605469 264.027344 134.203125 Z M 283.726562 57.503906 C 284.628906 56.90625 285.929688 56.90625 287.527344 57.304688 C 284.628906 57.503906 283.128906 58.503906 282.328125 59.40625 C 282.527344 58.804688 282.929688 58.003906 283.726562 57.503906 Z M 308.726562 72.304688 C 303.628906 59.90625 295.429688 57.804688 290.527344 57.40625 C 287.429688 55.90625 284.929688 55.703125 283.226562 56.703125 C 281.226562 57.90625 281.027344 60.304688 281.027344 60.804688 C 270.929688 59.003906 265.527344 75.003906 262.226562 94.804688 C 258.929688 105.105469 253.929688 117.003906 249.226562 116.503906 L 249.128906 117.503906 C 249.226562 117.503906 249.328125 117.503906 249.429688 117.503906 C 253.929688 117.503906 258.226562 108.804688 261.328125 100.304688 C 260.128906 108.703125 259.226562 117.503906 258.429688 125.804688 C 257.726562 133.105469 260.527344 138.40625 265.128906 141.503906 C 276.429688 132.304688 275.527344 107.804688 275.527344 107.503906 L 276.527344 107.503906 C 276.628906 108.703125 277.429688 132.503906 266.027344 142.105469 C 278.027344 149.105469 300.828125 142.804688 309.628906 122.605469 C 309.726562 111.503906 305.527344 104.40625 305.527344 104.304688 L 306.429688 103.804688 C 306.527344 103.90625 310.128906 110.203125 310.628906 120.203125 C 311.828125 116.90625 312.628906 113.304688 313.027344 109.40625 C 315.726562 103.703125 319.726562 90.003906 308.726562 72.304688" fill="#b56951"/></g><g id="change5_2"><path d="M 311.226562 86.605469 C 309.929688 85.804688 308.527344 86.40625 307.429688 87.203125 L 305.128906 89.40625 L 304.027344 76.40625 C 301.527344 73.605469 285.929688 73.90625 285.929688 73.90625 C 285.929688 72.40625 283.226562 66.40625 282.429688 64.703125 C 282.226562 64.804688 282.027344 64.90625 281.828125 65.003906 L 279.328125 75.40625 L 271.828125 82.203125 L 271.828125 91.40625 L 270.027344 89.804688 C 269.128906 89.105469 268.128906 88.804688 267.128906 89.304688 C 264.027344 90.804688 266.726562 101.90625 274.027344 100.703125 C 274.027344 100.703125 274.027344 100.703125 274.128906 100.703125 C 276.128906 103.804688 278.726562 106.304688 281.628906 107.90625 L 281.429688 112.203125 L 281.226562 115.605469 L 281.128906 117.703125 C 281.128906 117.703125 286.628906 122.804688 291.527344 121.804688 C 291.828125 121.703125 292.128906 121.703125 292.429688 121.605469 C 292.628906 121.503906 292.828125 121.503906 293.027344 121.40625 C 293.226562 121.304688 293.429688 121.203125 293.726562 121.105469 C 293.929688 121.003906 294.027344 120.90625 294.226562 120.90625 C 294.328125 120.804688 294.527344 120.703125 294.628906 120.703125 C 294.929688 120.605469 295.128906 120.40625 295.429688 120.203125 C 295.527344 120.105469 295.628906 120.003906 295.828125 119.90625 C 295.929688 119.804688 296.027344 119.703125 296.128906 119.605469 C 298.128906 118.105469 299.429688 116.203125 299.828125 115.605469 C 299.828125 115.503906 299.929688 115.503906 299.929688 115.503906 L 299.929688 115.304688 L 298.527344 106.003906 C 300.828125 104.105469 302.828125 101.605469 304.328125 98.703125 C 310.929688 99.703125 313.929688 88.203125 311.226562 86.605469" fill="#f7ccc6"/></g><g id="change1_10"><path d="M 298.429688 92.90625 C 298.429688 92.90625 287.929688 97.90625 280.328125 96.105469 C 280.328125 96.105469 285.429688 102.003906 290.328125 100.40625 C 295.226562 98.804688 298.429688 92.90625 298.429688 92.90625 Z M 284.328125 82.605469 C 284.328125 82.605469 283.226562 79.40625 280.929688 79.804688 C 278.628906 80.203125 274.226562 85.203125 274.226562 85.203125 C 274.226562 85.203125 283.726562 91.503906 284.328125 82.605469 Z M 292.828125 82.304688 C 292.828125 82.304688 293.128906 78.503906 296.226562 78.503906 C 299.328125 78.503906 302.527344 82.304688 302.527344 82.304688 C 302.527344 82.304688 296.128906 90.203125 292.828125 82.304688" fill="#fff"/></g><g id="change2_23"><path d="M 268.226562 91.804688 C 267.226562 91.703125 266.628906 92.304688 266.527344 92.304688 L 267.226562 93.003906 C 267.226562 93.003906 267.527344 92.703125 268.128906 92.804688 C 268.828125 92.90625 269.828125 93.304688 271.328125 95.304688 L 272.128906 94.703125 C 270.828125 92.90625 269.429688 91.90625 268.226562 91.804688 Z M 305.527344 92.503906 L 306.429688 92.804688 C 307.628906 89.40625 310.628906 89.804688 310.726562 89.804688 L 310.929688 88.804688 C 310.828125 88.90625 306.929688 88.304688 305.527344 92.503906 Z M 288.429688 109.40625 L 288.128906 110.40625 C 288.628906 110.503906 289.226562 110.605469 289.726562 110.605469 C 291.726562 110.605469 293.628906 109.804688 293.726562 109.703125 L 293.328125 108.804688 C 293.328125 108.804688 290.628906 110.003906 288.429688 109.40625 Z M 292.027344 90.105469 L 290.527344 88.105469 L 289.726562 88.703125 L 291.226562 90.703125 Z M 287.929688 81.003906 C 287.929688 78.503906 284.828125 76.703125 284.726562 76.605469 L 284.226562 77.503906 C 284.929688 77.90625 286.929688 79.40625 286.929688 81.003906 C 286.929688 83.203125 285.527344 88.003906 285.527344 88.105469 L 285.429688 88.304688 L 287.328125 92.003906 L 288.226562 91.605469 L 286.527344 88.203125 C 286.726562 87.203125 287.929688 83.003906 287.929688 81.003906 Z M 297.128906 94.003906 C 295.929688 95.804688 293.429688 98.90625 290.128906 99.90625 C 286.929688 100.90625 283.429688 98.40625 281.726562 96.804688 C 287.527344 97.605469 294.226562 95.203125 297.128906 94.003906 Z M 290.429688 100.90625 C 295.429688 99.304688 298.628906 93.40625 298.828125 93.105469 L 299.527344 91.804688 L 298.128906 92.503906 C 298.027344 92.503906 287.726562 97.40625 280.328125 95.703125 L 278.828125 95.304688 L 279.828125 96.503906 C 280.027344 96.703125 284.027344 101.203125 288.429688 101.203125 C 289.226562 101.203125 289.828125 101.105469 290.429688 100.90625 Z M 284.429688 82.203125 C 284.429688 82.203125 283.929688 80.703125 282.828125 79.804688 C 282.328125 79.40625 281.726562 79.105469 280.929688 79.203125 C 278.429688 79.40625 274.527344 84.304688 274.527344 84.304688 L 272.828125 84.304688 L 274.226562 85.105469 C 274.226562 85.105469 276.027344 83.203125 277.828125 81.703125 C 278.027344 82.804688 278.726562 85.605469 280.726562 85.105469 C 282.628906 84.605469 282.828125 81.804688 282.929688 80.40625 C 283.828125 81.203125 284.429688 82.203125 284.429688 82.203125 Z M 303.527344 81.503906 L 302.527344 82.605469 C 302.527344 82.605469 301.226562 81.304688 299.726562 80.203125 C 299.628906 81.203125 299.226562 83.703125 296.929688 84.003906 C 294.726562 84.40625 294.628906 81.105469 294.726562 79.503906 C 293.226562 80.503906 292.527344 82.105469 292.527344 82.105469 C 292.527344 82.105469 292.828125 78.40625 295.726562 78.003906 C 298.628906 77.605469 302.527344 81.605469 302.527344 81.605469 L 303.527344 81.503906" fill="#100f0d"/></g><g id="change4_10"><path d="M 281.328125 73.503906 C 281.628906 73.503906 281.828125 73.703125 282.027344 73.90625 C 282.527344 74.40625 283.226562 75.40625 282.628906 76.203125 C 282.128906 76.90625 279.328125 77.90625 277.527344 78.503906 C 276.628906 78.804688 275.828125 78.003906 276.027344 77.105469 C 276.429688 75.40625 277.726562 73.203125 281.328125 73.503906" fill="#b56951"/></g><g id="change2_24"><path d="M 272.226562 91.203125 L 271.226562 91.203125 L 271.226562 82.003906 L 278.429688 75.703125 L 281.226562 64.503906 L 282.226562 64.703125 L 279.328125 76.203125 L 272.226562 82.40625 L 272.226562 91.203125" fill="#100f0d"/></g><g id="change4_11"><path d="M 292.027344 73.105469 C 292.027344 73.105469 292.828125 76.40625 297.128906 76.203125 C 301.429688 76.003906 298.828125 69.203125 292.027344 73.105469 Z M 282.226562 63.605469 C 282.328125 63.90625 284.628906 69.804688 284.226562 74.503906 L 283.226562 74.40625 C 283.628906 70.003906 281.328125 64.003906 281.328125 64.003906 L 282.226562 63.605469" fill="#b56951"/></g><g id="change4_12"><path d="M 432.929688 44.003906 C 431.027344 48.605469 427.429688 51.605469 424.828125 50.503906 C 424.527344 50.40625 424.226562 50.203125 424.027344 50.003906 C 423.128906 51.605469 422.027344 53.105469 420.828125 54.503906 L 421.929688 67.804688 L 428.226562 68.703125 C 428.226562 68.703125 420.429688 87.003906 408.128906 87.304688 C 395.828125 87.503906 389.226562 78.605469 388.828125 73.804688 L 397.226562 69.605469 L 398.027344 60.804688 C 395.429688 59.304688 393.226562 57.105469 391.429688 54.304688 C 389.027344 54.203125 386.226562 51.605469 384.527344 47.804688 C 382.527344 43.203125 382.828125 38.605469 385.328125 37.503906 C 385.628906 37.40625 386.027344 37.304688 386.328125 37.304688 C 386.328125 37.003906 386.328125 36.605469 386.328125 36.304688 C 386.328125 22.003906 396.527344 10.40625 408.027344 10.40625 C 419.527344 10.40625 428.828125 19.40625 428.828125 33.703125 C 428.828125 33.90625 428.828125 34.003906 428.828125 34.203125 C 429.929688 33.703125 430.929688 33.503906 431.828125 33.90625 C 434.328125 34.804688 434.828125 39.40625 432.929688 44.003906" fill="#b56951"/></g><g id="change1_11"><path d="M 388.628906 34.105469 C 388.628906 34.105469 392.226562 26.804688 395.929688 28.40625 C 399.628906 30.003906 399.226562 32.703125 399.226562 32.703125 C 399.226562 32.703125 394.429688 37.90625 388.628906 34.105469" fill="#fff"/></g><g id="change2_25"><path d="M 398.628906 58.804688 L 398.628906 59.804688 C 392.328125 59.703125 389.027344 51.804688 387.328125 45.40625 C 386.027344 42.605469 385.226562 42.003906 384.929688 41.90625 C 384.828125 41.90625 384.726562 41.90625 384.726562 41.90625 L 384.027344 41.203125 C 384.226562 41.003906 384.527344 40.804688 385.027344 40.90625 C 385.527344 41.003906 386.027344 41.40625 386.527344 42.003906 C 386.027344 39.40625 385.828125 37.40625 385.726562 37.203125 L 386.726562 37.105469 C 386.828125 37.304688 389.128906 58.703125 398.628906 58.804688 Z M 423.527344 48.503906 L 424.429688 49.804688 L 423.628906 50.40625 L 422.726562 49.105469 Z M 432.929688 36.304688 L 432.527344 37.203125 C 432.527344 37.203125 431.328125 36.703125 429.929688 37.40625 C 428.527344 38.105469 427.429688 39.703125 426.628906 42.203125 L 425.628906 41.90625 C 426.429688 39.105469 427.726562 37.304688 429.429688 36.503906 C 431.328125 35.703125 432.929688 36.304688 432.929688 36.304688 Z M 401.527344 28.105469 L 402.226562 32.203125 L 399.027344 37.703125 L 398.128906 37.203125 L 401.128906 32.105469 L 400.527344 28.304688 Z M 417.429688 28.503906 L 417.226562 29.503906 C 413.429688 28.605469 409.027344 31.703125 408.929688 31.703125 L 408.328125 30.90625 C 408.527344 30.703125 413.128906 27.40625 417.429688 28.503906 Z M 415.527344 18.90625 C 416.628906 19.003906 417.628906 21.503906 417.527344 22.203125 C 417.429688 22.90625 415.429688 21.40625 412.128906 21.90625 C 408.726562 22.503906 407.226562 24.703125 406.929688 24.304688 C 406.527344 24.003906 407.226562 20.003906 407.226562 20.003906 C 411.328125 17.90625 414.429688 18.804688 415.527344 18.90625 Z M 390.429688 23.703125 C 389.027344 26.304688 389.929688 25.90625 389.929688 25.90625 C 393.328125 23.40625 399.226562 25.105469 399.726562 24.605469 C 400.226562 24.105469 399.027344 21.503906 399.027344 21.503906 C 396.226562 20.203125 391.828125 21.105469 390.429688 23.703125 Z M 399.328125 31.40625 C 399.328125 31.40625 397.226562 28.804688 395.128906 28.605469 C 394.527344 28.503906 393.628906 29.003906 392.828125 29.703125 C 393.628906 30.003906 395.328125 31.203125 394.828125 35.304688 C 394.828125 35.304688 392.128906 36.503906 388.726562 34.105469 L 390.027344 32.503906 C 389.226562 33.40625 388.726562 34.105469 388.726562 34.105469 C 388.726562 34.105469 391.429688 28.605469 394.328125 27.703125 C 397.226562 26.804688 399.328125 31.40625 399.328125 31.40625" fill="#100f0d"/></g><g id="change2_26"><path d="M 424.128906 11.605469 C 425.328125 11.90625 426.628906 12.40625 427.726562 13.605469 C 430.027344 15.90625 431.226562 19.605469 431.226562 24.804688 C 430.429688 19.90625 428.527344 14.304688 424.128906 11.605469 Z M 420.628906 4.703125 C 421.726562 5.105469 422.429688 5.605469 422.628906 6.203125 C 422.929688 7.105469 422.128906 8.105469 421.328125 8.90625 C 421.429688 7.605469 421.328125 6.003906 420.628906 4.703125 Z M 420.328125 8.304688 C 420.027344 7.105469 419.527344 5.605469 418.527344 4.203125 C 418.726562 4.203125 418.929688 4.304688 419.027344 4.304688 C 419.226562 4.503906 419.429688 4.804688 419.628906 5.105469 C 420.328125 6.003906 420.429688 7.203125 420.328125 8.304688 Z M 418.226562 9.90625 C 418.128906 9.90625 418.128906 9.90625 418.226562 9.90625 L 418.128906 9.90625 C 418.128906 9.90625 418.128906 9.90625 418.128906 9.804688 C 413.628906 3.703125 406.628906 7.703125 406.328125 7.90625 L 405.828125 7.003906 C 405.929688 7.003906 412.328125 3.304688 417.328125 7.503906 C 416.527344 6.003906 414.929688 4.40625 411.828125 4.804688 L 411.726562 3.804688 C 418.226562 3.003906 419.128906 9.703125 419.128906 9.703125 Z M 379.527344 20.605469 C 379.429688 18.804688 380.226562 17.203125 381.226562 15.804688 C 380.328125 19.203125 381.128906 23.105469 382.128906 25.503906 C 380.429688 24.003906 379.527344 22.304688 379.527344 20.605469 Z M 431.828125 30.703125 C 433.027344 22.105469 431.828125 16.105469 428.429688 12.804688 C 425.726562 10.203125 422.328125 10.203125 421.226562 10.304688 C 422.027344 9.605469 424.128906 7.703125 423.527344 5.804688 C 423.226562 4.605469 421.929688 3.804688 419.628906 3.304688 C 418.628906 2.40625 417.226562 1.703125 415.429688 1.503906 C 413.628906 0.605469 411.226562 0.00390625 407.929688 0.105469 C 401.929688 0.304688 399.027344 1.90625 396.527344 3.804688 C 393.328125 3.804688 390.929688 3.003906 390.128906 0.00390625 L 389.128906 0.304688 C 390.027344 3.40625 392.328125 4.605469 395.226562 4.804688 C 393.128906 6.503906 391.027344 8.304688 387.226562 9.503906 C 385.328125 10.105469 383.828125 11.105469 382.828125 12.304688 C 380.929688 14.003906 378.328125 17.105469 378.429688 20.605469 C 378.527344 23.203125 380.128906 25.605469 383.226562 27.804688 C 384.929688 30.304688 386.527344 31.304688 386.527344 31.304688 C 386.527344 31.304688 390.226562 17.90625 400.226562 12.703125 C 400.128906 12.804688 400.128906 13.003906 400.027344 13.105469 C 399.226562 15.105469 399.628906 17.40625 401.328125 20.003906 L 402.128906 19.503906 C 400.628906 17.304688 400.226562 15.203125 400.929688 13.503906 C 401.128906 12.90625 401.527344 12.40625 401.929688 11.90625 C 406.328125 10.203125 411.726562 10.105469 418.429688 13.203125 C 418.527344 13.304688 422.226562 17.003906 420.128906 17.40625 C 420.128906 17.40625 427.429688 28.703125 424.226562 36.804688 L 428.628906 34.003906 C 428.628906 34.003906 430.128906 33.003906 431.628906 33.703125 C 431.726562 33.703125 431.828125 32.503906 431.828125 30.703125" fill="#100f0d"/></g><g id="change4_13"><path d="M 408.929688 61.90625 C 408.328125 67.203125 392.628906 76.804688 392.628906 76.804688 C 393.527344 58.203125 409.429688 56.605469 408.929688 61.90625" fill="#b56951"/></g><g id="change1_12"><path d="M 416.628906 46.605469 C 417.226562 51.90625 412.328125 56.703125 405.828125 57.503906 C 399.226562 58.203125 393.429688 54.605469 392.828125 49.304688 C 392.226562 44.003906 397.128906 39.203125 403.628906 38.40625 C 410.128906 37.605469 416.027344 41.304688 416.628906 46.605469" fill="#fff"/></g><g id="change2_27"><path d="M 405.328125 38.804688 C 404.828125 38.804688 404.226562 38.804688 403.726562 38.90625 C 397.429688 39.605469 392.726562 44.203125 393.328125 49.203125 C 393.628906 51.605469 395.027344 53.703125 397.328125 55.203125 C 399.726562 56.703125 402.628906 57.304688 405.726562 57.003906 C 412.027344 56.304688 416.726562 51.703125 416.128906 46.703125 C 415.828125 44.304688 414.429688 42.203125 412.128906 40.703125 C 410.128906 39.40625 407.828125 38.804688 405.328125 38.804688 Z M 404.027344 58.105469 C 401.328125 58.105469 398.828125 57.40625 396.726562 56.105469 C 394.128906 54.503906 392.527344 52.105469 392.226562 49.40625 C 391.628906 43.90625 396.628906 38.703125 403.527344 38.003906 C 406.828125 37.605469 410.027344 38.304688 412.628906 39.90625 C 415.226562 41.503906 416.828125 43.90625 417.128906 46.605469 C 417.726562 52.105469 412.726562 57.304688 405.828125 58.003906 C 405.226562 58.003906 404.628906 58.105469 404.027344 58.105469" fill="#100f0d"/></g><g id="change3_7"><path d="M 407.429688 72.203125 C 401.726562 72.804688 397.929688 69.503906 397.328125 64.90625 L 394.429688 50.40625 C 393.929688 45.804688 398.128906 41.605469 403.828125 41.003906 C 409.527344 40.40625 414.628906 43.605469 415.128906 48.105469 L 415.226562 63.003906 C 415.828125 67.605469 413.128906 71.605469 407.429688 72.203125" fill="#59c1b4"/></g><g id="change2_28"><path d="M 405.628906 71.804688 C 405.527344 71.804688 405.429688 71.804688 405.328125 71.804688 C 405.226562 71.804688 405.128906 71.804688 405.027344 71.804688 C 402.027344 71.40625 399.628906 69.703125 399.429688 67.304688 C 399.226562 65.90625 399.828125 64.503906 401.128906 63.40625 C 402.429688 62.203125 404.226562 61.40625 406.226562 61.203125 C 406.628906 61.203125 407.027344 61.105469 407.429688 61.105469 C 411.027344 61.105469 413.929688 63.003906 414.226562 65.605469 C 414.429688 67.003906 413.828125 68.40625 412.527344 69.503906 C 411.226562 70.703125 409.429688 71.503906 407.527344 71.703125 C 406.726562 71.804688 406.128906 71.804688 405.628906 71.804688 Z M 395.027344 50.40625 C 394.828125 48.40625 395.628906 46.304688 397.226562 44.605469 C 398.929688 42.90625 401.328125 41.804688 403.929688 41.503906 C 404.429688 41.40625 404.828125 41.40625 405.328125 41.40625 C 407.429688 41.40625 409.527344 42.003906 411.226562 43.003906 C 413.226562 44.304688 414.429688 46.105469 414.726562 48.105469 L 414.828125 63.105469 C 414.929688 63.703125 414.929688 64.203125 414.828125 64.703125 C 413.929688 61.703125 410.128906 59.703125 405.929688 60.105469 C 403.726562 60.304688 401.726562 61.203125 400.226562 62.605469 C 398.929688 63.804688 398.226562 65.203125 398.226562 66.605469 C 398.027344 66.003906 397.929688 65.503906 397.828125 64.804688 Z M 415.828125 63.003906 L 415.726562 48.003906 C 415.429688 45.605469 414.027344 43.605469 411.828125 42.105469 C 409.628906 40.703125 406.828125 40.105469 403.929688 40.40625 C 401.027344 40.703125 398.429688 41.90625 396.628906 43.804688 C 394.726562 45.703125 393.828125 48.003906 394.128906 50.40625 L 397.027344 64.90625 C 397.328125 67.304688 398.429688 69.40625 400.328125 70.804688 C 401.726562 71.90625 403.527344 72.503906 405.527344 72.605469 C 405.828125 72.605469 406.027344 72.605469 406.328125 72.605469 C 406.726562 72.605469 407.128906 72.605469 407.628906 72.503906 L 407.726562 72.503906 C 413.027344 72.105469 416.429688 68.203125 415.828125 63.003906" fill="#100f0d"/></g><g id="change4_14"><path d="M 410.527344 52.605469 C 410.527344 52.605469 414.527344 57.90625 408.328125 56.703125 C 408.328125 56.703125 410.726562 58.804688 407.828125 59.105469 C 404.828125 59.40625 399.628906 60.003906 399.628906 60.003906 C 399.628906 60.003906 398.527344 70.003906 393.726562 75.605469 C 393.726562 75.605469 391.828125 87.003906 388.027344 92.203125 C 385.726562 95.40625 377.226562 83.304688 377.226562 83.304688 L 387.527344 65.003906 C 388.027344 59.203125 388.929688 50.304688 390.226562 48.304688 C 392.128906 45.105469 393.929688 39.40625 396.027344 39.203125 C 398.226562 39.105469 401.027344 38.90625 402.128906 39.203125 C 403.226562 39.503906 405.726562 41.203125 405.828125 41.703125 C 405.828125 42.203125 403.828125 44.804688 399.128906 42.605469 L 397.929688 42.703125 L 396.929688 45.703125 C 399.128906 44.703125 401.726562 43.804688 403.128906 44.003906 C 405.628906 44.40625 411.726562 46.703125 412.226562 50.503906 C 412.726562 54.503906 410.527344 52.605469 410.527344 52.605469" fill="#b56951"/></g><g id="change2_29"><path d="M 411.328125 55.105469 C 411.128906 54.304688 410.628906 53.40625 410.226562 53.003906 C 409.929688 52.804688 409.527344 52.503906 409.027344 52.203125 C 409.027344 52.90625 409.328125 54.304688 410.027344 54.90625 C 410.429688 55.105469 410.828125 55.203125 411.328125 55.105469 Z M 411.828125 51.203125 C 411.828125 51.105469 411.828125 51.105469 411.828125 51.003906 C 411.828125 50.304688 411.527344 49.40625 410.128906 48.003906 C 410.128906 48.703125 410.226562 49.804688 410.726562 50.503906 C 411.027344 50.90625 411.429688 51.105469 411.828125 51.203125 Z M 411.628906 53.304688 C 412.128906 54.105469 412.527344 55.304688 412.128906 56.40625 C 412.027344 56.804688 411.726562 57.003906 411.328125 57.203125 C 411.027344 57.304688 410.726562 57.40625 410.328125 57.40625 C 410.128906 57.40625 409.929688 57.40625 409.628906 57.40625 C 409.828125 57.703125 409.828125 58.003906 409.726562 58.304688 C 409.226562 60.203125 402.828125 60.503906 399.628906 60.605469 L 397.828125 61.503906 L 397.429688 60.605469 L 399.226562 59.703125 L 399.226562 59.605469 C 402.328125 59.503906 405.328125 59.203125 407.128906 58.804688 C 405.628906 58.40625 404.527344 57.105469 404.429688 57.003906 L 405.226562 56.40625 C 405.226562 56.40625 407.027344 58.503906 408.726562 57.90625 C 408.628906 57.804688 408.429688 57.605469 408.027344 57.304688 C 407.929688 57.304688 402.128906 53.90625 398.726562 55.203125 C 395.226562 56.503906 393.929688 58.503906 393.929688 58.503906 L 393.128906 57.90625 C 393.226562 57.804688 394.628906 55.605469 398.429688 54.203125 C 401.226562 53.105469 405.128906 54.703125 407.226562 55.703125 C 408.328125 56.105469 410.226562 56.703125 411.027344 56.40625 C 411.128906 56.304688 411.226562 56.304688 411.226562 56.203125 C 411.128906 56.203125 411.027344 56.203125 410.929688 56.203125 C 410.429688 56.203125 409.929688 56.105469 409.527344 55.804688 C 408.128906 54.703125 408.128906 52.203125 408.128906 52.105469 L 408.828125 52.105469 C 406.929688 50.804688 404.128906 49.105469 402.828125 48.90625 C 401.128906 48.703125 397.128906 50.40625 395.726562 51.003906 L 395.328125 50.105469 C 395.527344 50.003906 400.726562 47.703125 403.027344 47.90625 C 405.226562 48.105469 410.429688 51.90625 411.027344 52.304688 L 411.128906 52.40625 C 411.128906 52.40625 411.226562 52.503906 411.328125 52.605469 C 411.429688 52.503906 411.527344 52.40625 411.726562 52.203125 C 411.128906 52.105469 410.628906 51.804688 410.226562 51.304688 C 409.128906 49.90625 409.429688 47.503906 409.429688 47.40625 C 409.128906 47.105469 408.726562 46.90625 408.226562 46.605469 L 408.828125 45.804688 C 411.726562 47.703125 413.128906 49.605469 413.128906 51.203125 C 412.828125 52.304688 412.027344 53.105469 411.628906 53.304688 Z M 394.726562 74.804688 C 396.628906 73.003906 398.027344 68.90625 398.226562 68.40625 L 397.328125 68.105469 C 396.828125 69.605469 395.128906 73.703125 393.527344 74.605469 L 393.828125 75.203125 C 392.628906 79.605469 389.429688 90.605469 387.527344 92.203125 L 388.226562 92.90625 C 390.429688 90.90625 393.628906 79.605469 394.628906 76.003906 L 394.726562 76.105469 L 401.429688 71.40625 L 400.828125 70.605469 Z M 388.027344 65.304688 L 377.628906 83.605469 L 376.726562 83.105469 L 387.027344 64.90625 C 387.128906 63.703125 388.226562 54.003906 388.726562 51.203125 C 388.828125 50.703125 389.027344 50.304688 389.328125 49.804688 L 389.027344 49.703125 C 389.027344 49.703125 390.628906 45.40625 392.929688 41.703125 C 395.328125 37.703125 401.527344 38.605469 401.828125 38.605469 L 401.726562 39.203125 L 402.027344 39.105469 C 402.027344 39.203125 402.429688 41.605469 404.628906 42.105469 C 405.128906 41.605469 405.226562 41.105469 405.226562 41.105469 L 406.226562 41.40625 C 406.226562 41.503906 405.828125 42.90625 404.226562 43.703125 C 403.527344 44.105469 402.628906 44.304688 401.726562 44.304688 C 400.828125 44.304688 399.828125 44.105469 398.726562 43.804688 L 399.027344 42.804688 C 400.929688 43.40625 402.527344 43.40625 403.726562 42.90625 C 402.128906 42.203125 401.328125 40.605469 401.128906 39.605469 C 399.628906 39.503906 395.429688 39.503906 393.828125 42.304688 C 392.429688 44.605469 391.328125 47.003906 390.726562 48.605469 C 392.929688 46.804688 396.226562 45.703125 396.726562 45.503906 L 397.027344 46.40625 C 395.128906 47.105469 390.128906 49.203125 389.726562 51.503906 C 389.226562 54.40625 388.027344 65.105469 388.027344 65.304688" fill="#100f0d"/></g><g id="change5_3"><path d="M 317.128906 376.304688 C 303.828125 398.105469 296.226562 383.804688 293.429688 376.105469 C 295.429688 367.605469 298.328125 354.707031 298.328125 354.707031 C 304.527344 356.90625 312.628906 354.707031 312.628906 354.707031 C 312.628906 354.707031 315.527344 368.105469 317.128906 376.304688" fill="#f7ccc6"/></g><g id="change3_8"><path d="M 318.226562 382.40625 C 318.328125 384.707031 309.726562 404.503906 306.628906 405.304688 C 303.527344 406.105469 291.128906 384.503906 291.726562 383.304688 C 291.929688 382.90625 292.628906 380.003906 293.527344 376.105469 C 296.328125 383.804688 303.828125 398.003906 317.226562 376.304688 C 317.828125 379.40625 318.226562 381.804688 318.226562 382.40625" fill="#59c1b4"/></g><g id="change2_30"><path d="M 315.527344 366.105469 L 313.128906 354.707031 L 312.128906 354.90625 L 314.527344 366.304688 Z M 316.226562 389.90625 L 315.328125 389.503906 C 318.226562 383.304688 317.628906 379.304688 317.128906 377.605469 C 315.726562 380.304688 311.226562 387.605469 304.828125 388.40625 C 298.628906 389.207031 294.929688 381.503906 293.628906 378.003906 L 292.429688 383.105469 C 292.328125 383.503906 292.429688 383.90625 292.527344 384.304688 C 297.128906 393.707031 303.628906 404.707031 306.726562 404.90625 L 306.628906 405.90625 C 302.328125 405.605469 294.726562 391.003906 291.628906 384.804688 C 291.328125 384.207031 291.226562 383.605469 291.429688 382.90625 L 293.027344 376.105469 L 297.929688 354.707031 L 298.929688 354.90625 L 294.128906 376.207031 C 294.527344 377.503906 298.128906 388.207031 304.828125 387.40625 C 312.027344 386.503906 316.828125 376.304688 316.828125 376.207031 L 317.226562 375.40625 L 317.726562 376.207031 C 317.726562 376.304688 320.527344 380.90625 316.226562 389.90625" fill="#100f0d"/></g><g id="change2_31"><path d="M 305.527344 178.105469 L 275.429688 178.105469 L 275.429688 177.105469 L 305.527344 177.105469 Z M 299.226562 197.703125 C 298.828125 197.90625 298.429688 197.90625 298.226562 197.804688 C 297.128906 197.203125 294.628906 190.304688 293.226562 185.503906 L 292.828125 183.105469 L 292.328125 185.503906 C 290.726562 190.40625 287.027344 197.804688 284.328125 197.304688 C 282.027344 196.804688 280.628906 195.003906 280.027344 194.003906 C 279.027344 192.304688 278.828125 190.804688 279.027344 190.003906 C 279.429688 188.804688 286.128906 184.304688 292.328125 180.605469 C 297.726562 183.105469 305.726562 187.804688 305.027344 190.304688 C 304.128906 193.503906 301.128906 196.90625 299.226562 197.703125 Z M 301.226562 204.703125 L 296.929688 206.203125 L 294.527344 192.503906 C 295.628906 195.40625 296.828125 198.304688 297.828125 198.804688 C 298.027344 198.90625 298.328125 199.003906 298.527344 199.003906 C 298.828125 199.003906 299.226562 198.90625 299.628906 198.703125 C 299.726562 198.703125 299.828125 198.605469 299.828125 198.605469 Z M 287.828125 205.703125 L 283.226562 204.703125 L 285.527344 198.304688 C 287.726562 197.605469 289.628906 194.40625 291.128906 191.40625 Z M 305.929688 190.605469 C 307.128906 186.40625 294.027344 180.304688 292.429688 179.605469 L 292.226562 179.503906 L 292.027344 179.605469 C 289.828125 180.90625 278.628906 187.605469 278.027344 189.703125 C 277.628906 190.90625 278.128906 192.804688 279.128906 194.503906 C 279.828125 195.703125 281.429688 197.703125 284.128906 198.304688 C 284.226562 198.304688 284.328125 198.304688 284.328125 198.304688 L 281.828125 205.304688 L 288.527344 206.804688 L 292.726562 188.203125 L 296.128906 207.503906 L 302.429688 205.40625 L 300.726562 198.003906 C 302.929688 196.503906 305.226562 193.304688 305.929688 190.605469 Z M 292.726562 235.304688 Z M 330.628906 233.90625 L 315.726562 290.90625 L 315.128906 353.003906 C 314.027344 353.40625 310.328125 354.605469 306.226562 355.105469 L 305.027344 302.804688 L 304.027344 302.804688 L 305.226562 355.105469 C 301.128906 355.40625 296.828125 354.804688 294.828125 351.503906 C 294.328125 348.003906 282.027344 259.503906 297.527344 223.003906 L 296.628906 222.605469 C 295.027344 226.304688 293.828125 230.40625 292.726562 235.003906 L 271.527344 212.703125 L 270.828125 213.40625 L 290.828125 234.304688 L 280.726562 230.203125 L 280.328125 231.105469 L 292.527344 236.105469 C 286.527344 263.804688 288.929688 304.703125 291.328125 329.707031 C 273.027344 303.703125 254.027344 224.003906 253.828125 223.203125 L 252.828125 223.40625 C 253.027344 224.203125 272.726562 307.003906 291.429688 331.707031 C 292.628906 343.605469 293.726562 351.503906 293.726562 351.707031 L 293.828125 351.90625 C 295.726562 355.105469 299.429688 356.105469 303.328125 356.105469 C 309.226562 356.105469 315.328125 353.804688 315.726562 353.605469 L 316.027344 353.503906 L 316.628906 290.90625 L 331.527344 234.003906 L 330.628906 233.90625" fill="#100f0d"/></g><g id="change1_13"><path d="M 305.527344 177.203125 L 276.726562 177.203125 L 276.726562 176.703125 L 281.027344 117.203125 C 281.027344 117.203125 286.429688 122.90625 291.328125 121.804688 C 291.628906 121.703125 291.929688 121.703125 292.226562 121.605469 C 292.429688 121.503906 292.628906 121.503906 292.828125 121.40625 C 293.027344 121.304688 293.226562 121.203125 293.527344 121.105469 C 293.726562 121.003906 293.828125 120.90625 294.027344 120.90625 C 294.128906 120.804688 294.328125 120.703125 294.429688 120.703125 C 294.726562 120.605469 294.929688 120.40625 295.226562 120.203125 C 295.328125 120.105469 295.429688 120.003906 295.628906 119.90625 C 295.726562 119.804688 295.828125 119.703125 295.929688 119.605469 C 297.929688 118.105469 299.226562 116.203125 299.628906 115.605469 C 299.628906 115.503906 299.726562 115.503906 299.726562 115.503906 L 305.527344 176.804688 L 305.527344 177.203125" fill="#fff"/></g><g id="change2_32"><path d="M 292.027344 134.105469 C 292.027344 134.605469 291.628906 134.90625 291.226562 134.90625 C 290.726562 134.90625 290.429688 134.503906 290.429688 134.105469 C 290.429688 133.703125 290.828125 133.304688 291.226562 133.304688 C 291.628906 133.203125 292.027344 133.605469 292.027344 134.105469 Z M 293.027344 134.105469 C 293.027344 133.105469 292.226562 132.304688 291.226562 132.304688 C 290.226562 132.304688 289.429688 133.105469 289.429688 134.105469 C 289.429688 135.105469 290.226562 135.90625 291.226562 135.90625 C 292.226562 135.90625 293.027344 135.105469 293.027344 134.105469 Z M 297.328125 135.105469 C 294.328125 135.105469 292.027344 129.703125 291.027344 126.605469 C 290.429688 129.203125 288.929688 133.503906 286.328125 134.804688 C 282.527344 136.703125 277.527344 128.304688 276.929688 127.40625 L 277.828125 126.90625 C 279.226562 129.304688 283.429688 135.203125 285.929688 133.90625 C 289.128906 132.304688 290.429688 124.605469 290.429688 124.503906 L 290.828125 122.203125 L 291.429688 124.503906 C 292.128906 127.304688 294.628906 134.40625 297.429688 134.105469 C 300.226562 133.90625 303.226562 127.003906 304.128906 124.40625 L 305.027344 124.703125 C 304.628906 125.703125 301.429688 134.703125 297.429688 135.003906 C 297.429688 135.105469 297.429688 135.105469 297.328125 135.105469" fill="#100f0d"/></g><g id="change3_9"><path d="M 282.628906 187.503906 L 277.628906 164.703125 L 281.128906 115.503906 C 249.828125 120.40625 243.929688 160.003906 243.929688 160.003906 C 235.128906 183.90625 246.328125 198.503906 246.328125 198.503906 C 246.328125 198.503906 242.527344 242.40625 246.328125 242.703125 C 249.527344 242.90625 256.226562 230.304688 276.328125 224.90625 L 276.628906 193.804688 C 280.429688 190.605469 282.628906 187.503906 282.628906 187.503906 Z M 342.226562 205.003906 C 342.226562 205.003906 346.328125 242.804688 343.726562 242.804688 C 341.726562 242.804688 328.429688 229.503906 308.527344 224.605469 L 305.429688 176.703125 L 299.628906 115.40625 L 299.628906 115.203125 C 310.328125 116.703125 319.328125 121.90625 326.328125 133.703125 L 334.128906 131.003906 C 334.128906 131.003906 354.328125 176.203125 340.929688 189.804688 C 341.429688 194.605469 341.929688 199.605469 342.226562 205.003906" fill="#59c1b4"/></g><g id="change2_33"><path d="M 277.328125 155.503906 C 277.328125 152.503906 279.527344 150.105469 282.429688 149.703125 L 282.429688 160.503906 C 282.429688 160.804688 282.429688 161.105469 282.527344 161.40625 C 279.527344 161.003906 277.328125 158.503906 277.328125 155.503906 Z M 301.527344 145.90625 L 282.429688 145.90625 C 282.429688 146.105469 282.429688 146.40625 282.429688 146.605469 L 282.429688 147.703125 C 278.429688 148.105469 275.328125 151.503906 275.328125 155.605469 C 275.328125 160.003906 278.828125 163.503906 283.226562 163.503906 C 284.226562 165.203125 286.027344 166.304688 288.128906 166.304688 L 295.929688 166.304688 C 299.027344 166.304688 301.628906 163.703125 301.628906 160.605469 L 301.628906 146.605469 C 301.628906 146.304688 301.628906 146.105469 301.527344 145.90625" fill="#100f0d"/></g><g id="change5_4"><path d="M 279.429688 173.003906 C 282.828125 172.90625 285.628906 167.703125 285.628906 167.703125 C 285.628906 167.703125 295.226562 163.304688 295.226562 161.804688 C 295.226562 160.304688 293.628906 160.40625 293.628906 160.40625 C 293.628906 160.40625 295.328125 160.703125 296.226562 159.105469 C 297.128906 157.503906 294.328125 157.605469 294.328125 157.605469 C 294.328125 157.605469 296.828125 157.703125 297.027344 155.90625 C 297.328125 154.203125 294.929688 154.605469 294.929688 154.605469 C 294.929688 154.605469 297.128906 154.105469 296.628906 152.503906 C 296.128906 151.003906 284.828125 150.90625 282.628906 152.503906 C 280.429688 154.105469 277.929688 165.90625 277.929688 165.90625 Z M 322.226562 135.503906 L 321.628906 127.703125 C 321.628906 127.703125 314.929688 120.90625 314.328125 119.105469 C 313.726562 117.304688 312.128906 112.003906 313.929688 111.003906 C 315.828125 110.003906 318.226562 117.304688 318.226562 117.304688 L 321.128906 118.804688 C 321.128906 118.804688 324.328125 100.003906 326.726562 98.203125 C 329.128906 96.40625 328.726562 99.703125 328.726562 99.703125 C 328.726562 99.703125 329.429688 97.703125 330.828125 97.703125 C 332.226562 97.703125 331.628906 100.503906 331.628906 100.503906 C 331.628906 100.503906 332.328125 99.003906 333.628906 99.105469 C 334.929688 99.203125 333.527344 107.105469 332.726562 111.703125 C 332.726562 111.703125 334.527344 106.003906 336.027344 105.605469 C 337.527344 105.203125 335.929688 115.304688 332.027344 125.605469 L 333.128906 131.503906 L 322.226562 135.503906" fill="#f7ccc6"/></g><g id="change3_10"><path d="M 296.128906 154.90625 C 295.328125 154.003906 293.328125 154.90625 293.328125 154.90625 C 293.527344 157.90625 296.929688 155.804688 296.128906 154.90625 Z M 294.328125 160.503906 C 292.726562 160.105469 291.429688 161.503906 291.429688 161.503906 C 292.929688 163.105469 295.929688 160.804688 294.328125 160.503906 Z M 295.628906 157.703125 C 294.328125 157.304688 292.828125 157.804688 292.828125 157.804688 C 294.226562 159.804688 296.828125 158.003906 295.628906 157.703125 Z M 295.128906 153.003906 C 293.527344 153.203125 292.828125 151.40625 292.828125 151.40625 C 298.128906 151.40625 296.726562 152.804688 295.128906 153.003906" fill="#59c1b4"/></g><g id="change2_34"><path d="M 336.628906 105.40625 C 336.527344 105.203125 336.226562 105.105469 336.027344 105.105469 C 335.429688 105.105469 334.828125 105.703125 334.328125 106.605469 C 334.828125 103.703125 335.128906 100.804688 334.628906 99.703125 C 334.226562 98.804688 333.726562 98.605469 333.328125 98.605469 C 332.929688 98.605469 332.527344 98.804688 332.128906 99.105469 C 332.027344 98.503906 331.929688 97.804688 331.628906 97.503906 C 331.429688 97.304688 331.226562 97.203125 330.929688 97.203125 C 330.226562 97.203125 329.628906 97.804688 329.226562 98.304688 C 329.128906 97.804688 328.828125 97.304688 328.429688 97.105469 C 327.929688 96.90625 327.429688 97.105469 326.929688 97.703125 L 326.828125 97.804688 C 326.628906 98.105469 322.929688 104.40625 320.929688 118.105469 L 318.828125 117.003906 C 318.328125 115.503906 316.328125 110.003906 313.929688 110.605469 C 313.527344 110.703125 313.226562 110.90625 313.027344 111.304688 C 311.929688 113.203125 313.726562 118.703125 313.929688 119.304688 L 314.027344 119.40625 C 314.628906 120.203125 320.027344 127.203125 321.429688 128.105469 L 321.929688 127.304688 C 320.929688 126.703125 317.128906 121.90625 314.828125 118.90625 C 314.128906 116.703125 313.226562 112.90625 313.828125 111.804688 C 313.929688 111.605469 314.027344 111.605469 314.128906 111.605469 C 315.328125 111.304688 317.027344 115.003906 317.929688 117.503906 L 318.027344 117.703125 L 324.128906 120.90625 L 324.628906 120.003906 L 321.929688 118.605469 C 323.828125 105.40625 327.429688 98.90625 327.726562 98.304688 C 328.027344 98.003906 328.128906 98.003906 328.128906 98.003906 C 328.328125 98.105469 328.527344 99.003906 328.527344 99.605469 L 325.828125 113.503906 L 326.828125 113.703125 L 329.429688 100.003906 C 329.828125 99.304688 330.527344 98.304688 331.027344 98.304688 C 331.226562 98.503906 331.328125 99.503906 331.328125 100.503906 L 329.429688 113.203125 L 330.429688 113.304688 L 332.328125 100.90625 L 332.429688 100.90625 C 332.429688 100.804688 332.429688 100.703125 332.429688 100.605469 C 332.726562 100.203125 333.226562 99.605469 333.527344 99.605469 C 333.628906 99.605469 333.828125 99.804688 334.027344 100.105469 C 334.628906 101.304688 333.628906 107.003906 332.726562 111.203125 C 332.628906 111.503906 332.628906 111.703125 332.527344 112.003906 C 332.226562 112.90625 331.628906 115.40625 332.726562 116.105469 L 333.226562 115.304688 C 333.027344 115.105469 333.027344 114.203125 333.226562 113.105469 C 333.226562 113.003906 333.328125 112.703125 333.429688 112.40625 L 333.429688 112.304688 C 333.429688 112.105469 333.527344 111.804688 333.628906 111.605469 C 334.429688 109.105469 335.527344 106.804688 336.027344 106.304688 C 336.328125 108.304688 334.328125 119.503906 331.628906 126.003906 L 331.527344 126.105469 L 332.828125 131.605469 L 333.828125 131.40625 L 332.628906 126.203125 C 335.027344 119.804688 337.628906 106.90625 336.628906 105.40625 Z M 330.226562 125.605469 L 330.429688 127.203125 L 331.429688 127.105469 L 331.226562 125.503906 Z M 291.726562 151.90625 L 291.726562 150.90625 C 290.929688 150.90625 284.328125 150.703125 282.527344 151.90625 C 280.527344 153.203125 280.929688 154.90625 280.929688 155.003906 L 281.929688 154.804688 C 281.929688 154.804688 281.726562 153.703125 283.128906 152.703125 C 284.429688 151.90625 289.726562 151.90625 291.726562 151.90625 Z M 284.226562 167.804688 L 285.328125 168.203125 L 285.628906 167.304688 L 284.527344 166.90625 Z M 285.929688 162.203125 L 286.628906 162.90625 C 287.128906 162.304688 290.328125 161.605469 292.328125 161.304688 L 292.128906 160.304688 C 291.328125 160.40625 286.828125 161.203125 285.929688 162.203125 Z M 285.226562 158.804688 L 285.929688 159.503906 C 286.527344 158.90625 290.226562 158.304688 292.726562 158.003906 L 292.628906 157.003906 C 291.527344 157.203125 286.328125 157.703125 285.226562 158.804688 Z M 292.828125 154.003906 L 292.828125 155.003906 C 291.128906 154.90625 286.429688 155.105469 285.027344 156.304688 L 284.429688 155.503906 C 286.328125 153.804688 292.628906 154.003906 292.828125 154.003906" fill="#100f0d"/></g><g id="change2_35"><path d="M 248.226562 233.90625 L 249.226562 233.90625 L 249.226562 240.804688 L 248.226562 240.804688 Z M 252.929688 230.40625 L 253.929688 230.40625 L 253.929688 237.40625 L 252.929688 237.40625 Z M 258.128906 226.503906 L 259.128906 226.503906 L 259.128906 233.203125 L 258.128906 233.203125 Z M 263.929688 223.503906 L 264.929688 223.503906 L 264.929688 229.703125 L 263.929688 229.703125 Z M 269.828125 220.40625 L 270.828125 220.40625 L 270.828125 226.503906 L 269.828125 226.503906 Z M 281.328125 182.804688 L 281.929688 183.605469 L 273.929688 190.203125 L 273.328125 189.40625 Z M 270.128906 183.804688 L 280.226562 177.503906 L 280.726562 178.304688 L 270.628906 184.605469 Z M 267.628906 178.703125 L 279.226562 172.503906 L 279.726562 173.40625 L 268.128906 179.605469 Z M 265.226562 174.003906 L 278.128906 167.703125 L 278.527344 168.605469 L 265.628906 174.90625 Z M 248.929688 176.703125 L 264.429688 169.605469 C 262.429688 168.203125 256.128906 164.203125 251.429688 164.605469 L 251.328125 163.605469 C 255.527344 163.304688 260.527344 165.90625 263.429688 167.703125 L 255.628906 131.40625 L 256.628906 131.203125 L 264.628906 168.503906 C 265.027344 168.804688 265.328125 169.003906 265.527344 169.105469 L 272.128906 166.003906 C 267.429688 151.90625 272.828125 118.90625 273.128906 117.503906 L 274.128906 117.703125 C 274.027344 118.003906 268.527344 151.703125 273.128906 165.703125 L 277.527344 163.703125 L 277.929688 164.605469 L 273.429688 166.703125 L 273.429688 166.804688 L 272.527344 167.203125 L 249.429688 177.804688 Z M 276.226562 193.503906 L 277.027344 194.105469 C 276.726562 194.503906 269.328125 203.105469 260.226562 204.40625 C 256.226562 206.503906 251.929688 209.40625 251.929688 210.40625 C 251.828125 212.40625 251.929688 221.003906 251.929688 221.105469 L 250.929688 221.105469 C 250.929688 220.703125 250.828125 212.40625 250.929688 210.40625 C 251.027344 208.703125 255.128906 206.105469 257.828125 204.605469 C 253.828125 204.605469 250.027344 202.90625 246.828125 199.703125 C 245.328125 219.605469 244.828125 241.003906 246.726562 242.304688 L 246.128906 243.105469 C 242.828125 240.90625 245.328125 205.503906 245.929688 198.503906 L 246.027344 197.304688 L 246.828125 198.203125 C 250.128906 201.90625 253.929688 203.703125 258.128906 203.605469 C 267.628906 203.503906 276.128906 193.605469 276.226562 193.503906 Z M 314.628906 219.40625 L 315.628906 219.40625 L 315.628906 226.605469 L 314.628906 226.605469 Z M 320.726562 221.203125 L 321.726562 221.203125 L 321.726562 229.203125 L 320.726562 229.203125 Z M 325.429688 222.804688 L 326.429688 222.804688 L 326.429688 231.40625 L 325.429688 231.40625 Z M 330.128906 224.605469 L 331.128906 224.605469 L 331.128906 234.003906 L 330.128906 234.003906 Z M 336.328125 226.804688 L 336.828125 237.804688 L 335.828125 237.804688 L 335.328125 226.804688 Z M 308.527344 117.304688 C 308.828125 119.503906 315.726562 170.605469 308.527344 187.703125 L 307.628906 187.304688 C 314.726562 170.40625 307.628906 117.90625 307.628906 117.40625 Z M 330.628906 151.203125 L 327.828125 133.203125 L 328.828125 133.003906 L 331.628906 151.003906 Z M 336.226562 148.804688 L 331.226562 132.003906 L 332.226562 131.703125 L 337.226562 148.503906 Z M 335.328125 219.40625 L 335.328125 207.605469 C 334.128906 205.503906 322.726562 201.203125 315.828125 198.90625 L 316.128906 197.90625 C 318.027344 198.503906 334.929688 204.003906 336.328125 207.203125 L 336.328125 219.304688 L 335.328125 219.304688 Z M 326.527344 196.605469 C 327.429688 197.003906 328.328125 197.203125 329.328125 197.203125 C 332.726562 197.203125 336.726562 194.90625 341.226562 190.203125 L 340.527344 189.503906 C 335.027344 195.203125 330.429688 197.304688 326.828125 195.703125 C 314.429688 190.105469 317.429688 142.003906 317.726562 137.703125 L 319.429688 137.003906 L 320.226562 152.605469 L 321.226562 152.605469 L 320.429688 136.90625 L 319.929688 136.90625 L 323.828125 135.40625 L 324.628906 152.203125 L 325.628906 152.203125 L 324.828125 135.105469 L 326.527344 134.40625 L 326.128906 133.503906 L 316.828125 137.203125 L 316.828125 137.503906 C 316.628906 139.503906 312.929688 190.503906 326.527344 196.605469 Z M 340.628906 241.304688 L 339.929688 229.304688 L 340.929688 229.203125 L 341.628906 241.203125 L 340.628906 241.304688" fill="#100f0d"/></g></g></svg>